<svg width="138" height="138" viewBox="0 0 138 138" fill="none" xmlns="http://www.w3.org/2000/svg">
	<path d="M29.1465 35.5371L44.1465 23.0371H69.6465L93.6465 25.0371L108.646 35.5371L118.146 46.0371L120.646 63.5371V82.0371L115.646 97.5371L93.6465 104.037H69.6465L46.6465 100.537L41.1465 88.5371L20.6465 82.0371L18.6465 63.5371L20.6465 45.0371L29.1465 35.5371Z" fill="#FFB3B3"/>
	<path d="M85.168 39.1191C85.8516 38.4355 86.1934 37.6055 86.1934 36.6289C86.1934 35.6523 85.8516 34.8223 85.168 34.1387C83.6055 32.5762 81.75 31.3392 79.6016 30.4277C77.4857 29.4837 75.2233 29.0117 72.8145 29.0117C70.4056 29.0117 68.1432 29.4837 66.0274 30.4277C63.9115 31.3392 62.0723 32.5762 60.5098 34.1387C59.8262 34.8223 59.4844 35.6523 59.4844 36.6289C59.4844 37.6055 59.8262 38.4355 60.5098 39.1191C61.1934 39.8027 62.0072 40.1445 62.9512 40.1445C63.9277 40.1445 64.7741 39.8027 65.4903 39.1191C67.5085 37.1009 69.9499 36.0918 72.8145 36.0918C75.6791 36.0918 78.1367 37.1009 80.1875 39.1191C80.8711 39.8027 81.7012 40.1445 82.6777 40.1445C83.6543 40.1445 84.4844 39.8027 85.168 39.1191ZM44.2988 35.75C45.1452 35.2617 46.0404 35.1478 46.9844 35.4082C47.9284 35.6361 48.6445 36.1732 49.1328 37.0195C49.6211 37.8659 49.735 38.7611 49.4746 39.7051C49.2468 40.6165 48.7097 41.3327 47.8633 41.8535C45.3568 43.2858 43.127 45.0924 41.1738 47.2734C39.2207 49.4219 37.6419 51.8144 36.4375 54.4512C35.2005 57.153 34.4193 59.985 34.0938 62.9473C33.9961 63.9238 33.5567 64.7213 32.7754 65.3398C32.0267 65.9258 31.1641 66.1699 30.1875 66.0723C29.2435 65.9746 28.4623 65.5514 27.8438 64.8027C27.2253 64.0215 26.9811 63.1426 27.1113 62.166C27.502 58.4551 28.4785 54.9069 30.041 51.5215C31.5384 48.2337 33.5078 45.2389 35.9492 42.5371C38.3906 39.8353 41.1738 37.5729 44.2988 35.75ZM97.4727 75.0566C97.4727 76.5215 96.9518 77.7747 95.9102 78.8164C94.8685 79.8255 93.6315 80.3301 92.1992 80.3301H78.625C79.4388 78.6048 79.8457 76.847 79.8457 75.0566C79.8457 74.0801 79.5039 73.25 78.8203 72.5664C78.1367 71.8828 77.3067 71.541 76.3301 71.541C75.3861 71.541 74.556 71.8828 73.8399 72.5664C73.1563 73.25 72.8145 74.0801 72.8145 75.0566C72.8145 76.5215 72.2936 77.7747 71.252 78.8164C70.2429 79.8255 69.0059 80.3301 67.541 80.3301H59.875C58.8985 80.3301 58.0684 80.6719 57.3848 81.3555C56.7012 82.0391 56.3594 82.8691 56.3594 83.8457C56.3594 84.8223 56.7012 85.6523 57.3848 86.3359C58.0684 87.0195 58.8985 87.3613 59.875 87.3613H81.6035C83.0684 87.3613 84.3054 87.8822 85.3145 88.9238C86.3561 89.9655 86.8932 91.2025 86.9258 92.6348C86.9258 93.6113 87.2676 94.4577 87.9512 95.1738C88.6348 95.8574 89.4649 96.1992 90.4414 96.1992C91.3854 96.1992 92.1992 95.8574 92.8828 95.1738C93.599 94.4577 93.957 93.6113 93.957 92.6348C93.957 90.8118 93.5339 89.0378 92.6875 87.3125C94.8685 87.2474 96.8542 86.6614 98.6445 85.5547C100.435 84.4154 101.851 82.9342 102.893 81.1113C103.967 79.2884 104.504 77.2702 104.504 75.0566C104.504 74.0801 104.163 73.25 103.479 72.5664C102.795 71.8828 101.965 71.541 100.989 71.541C100.012 71.541 99.1817 71.8828 98.4981 72.5664C97.8145 73.25 97.4727 74.0801 97.4727 75.0566ZM125.597 72.2734V80.3301C125.597 80.4277 125.597 80.5579 125.597 80.7207C125.565 80.8509 125.549 80.9648 125.549 81.0625C125.582 81.2578 125.597 81.388 125.597 81.4531C125.597 81.7461 125.597 81.9577 125.597 82.0879C125.597 82.3157 125.532 82.6575 125.402 83.1133C125.304 84.0247 125.174 84.9199 125.011 85.7988C124.881 86.6777 124.686 87.5404 124.425 88.3867C123.384 91.9023 121.724 95.0762 119.446 97.9082C117.2 100.708 114.481 103.003 111.291 104.793C108.133 106.583 104.7 107.723 100.989 108.211V117.586C100.989 118.758 100.435 119.572 99.3281 120.027C98.2539 120.483 97.3099 120.288 96.4961 119.441L85.5098 108.504H60.5098C56.8965 108.504 53.5436 107.739 50.4512 106.209C47.3913 104.679 44.7871 102.596 42.6387 99.959C40.5228 97.2897 39.0742 94.2624 38.293 90.8769H33.8985C30.0573 90.8769 26.558 89.9492 23.4004 88.0937C20.2429 86.2057 17.7201 83.6829 15.832 80.5254C13.944 77.3353 13 73.8197 13 69.9785C13 62.6543 14.3672 55.8021 17.1016 49.4219C19.8685 43.0091 23.6771 37.3776 28.5274 32.5273C33.3776 27.6771 38.9929 23.8848 45.3731 21.1504C51.7858 18.3835 58.6543 17 65.9785 17H70.3242C77.4206 17 84.11 18.2533 90.3926 20.7598C96.6751 23.2337 102.274 26.6842 107.189 31.1113C112.137 35.5384 116.174 40.7142 119.299 46.6387C122.457 52.5631 124.425 58.9759 125.207 65.8769C125.337 66.9186 125.434 67.9766 125.5 69.0508C125.565 70.0924 125.597 71.1667 125.597 72.2734ZM117.688 86.3848C118.176 84.7246 118.453 82.9505 118.518 81.0625C118.388 78.5885 117.818 76.2773 116.809 74.1289C115.833 71.9479 114.529 70.0436 112.902 68.416C111.144 66.6582 109.093 65.2747 106.75 64.2656C104.406 63.2565 101.899 62.7519 99.2305 62.7519C99.0026 62.7519 98.6771 62.6868 98.2539 62.5566H98.2051C96.2194 64.2493 93.957 65.584 91.418 66.5605C88.9115 67.5371 86.2422 68.0254 83.4102 68.0254C82.4336 68.0254 81.5873 67.6836 80.8711 67C80.1875 66.3164 79.8457 65.4863 79.8457 64.5098C79.8457 63.5332 80.1875 62.7031 80.8711 62.0195C81.5873 61.3359 82.4336 60.9941 83.4102 60.9941C85.5912 60.9941 87.6419 60.5872 89.5625 59.7734C91.4831 58.9271 93.1595 57.7878 94.5918 56.3555C96.0241 54.9232 97.1472 53.2467 97.961 51.3262C98.8073 49.4056 99.2305 47.3385 99.2305 45.125C99.2305 44.181 99.5723 43.3672 100.256 42.6836C100.939 41.9674 101.769 41.6094 102.746 41.6094C103.722 41.6094 104.552 41.9674 105.236 42.6836C105.919 43.3672 106.261 44.181 106.261 45.125C106.261 49.0312 105.335 52.6771 103.479 56.0625C106.213 56.5182 108.784 57.3646 111.193 58.6016C113.602 59.8385 115.766 61.3848 117.688 63.2402C116.613 57.6738 114.66 52.5143 111.828 47.7617C108.996 42.9766 105.464 38.8099 101.232 35.2617C97.0007 31.7135 92.2643 28.9629 87.0235 27.0098C81.7826 25.0241 76.2162 24.0312 70.3242 24.0312H65.9785C59.6309 24.0312 53.6738 25.2357 48.1074 27.6445C42.541 30.0534 37.6745 33.3411 33.5078 37.5078C29.3412 41.6745 26.0534 46.541 23.6445 52.1074C21.2357 57.6738 20.0313 63.6309 20.0313 69.9785C20.0313 71.8991 20.3893 73.7057 21.1055 75.3984C21.8542 77.0586 22.847 78.5234 24.084 79.793C25.3535 81.0625 26.8184 82.0553 28.4785 82.7715C30.1712 83.4876 31.9779 83.8457 33.8985 83.8457H37.9024C38.293 81.2415 39.058 78.7838 40.1973 76.4726C41.3366 74.1614 42.7852 72.0944 44.543 70.2715C44.2826 68.8392 43.6315 67.6022 42.5899 66.5605C41.9063 65.8769 41.5645 65.0469 41.5645 64.0703C41.5645 63.0937 41.9063 62.2637 42.5899 61.5801C43.306 60.8965 44.1361 60.5547 45.0801 60.5547C46.0567 60.5547 46.8867 60.8965 47.5703 61.5801C48.7422 62.7519 49.7025 64.1517 50.4512 65.7793C52.209 64.8027 54.0807 64.054 56.0664 63.5332C58.0521 63.0124 60.1192 62.7519 62.2676 62.7519C63.2442 62.7519 64.0742 63.0937 64.7578 63.7773C65.4414 64.4609 65.7832 65.291 65.7832 66.2676C65.7832 67.2441 65.4414 68.0742 64.7578 68.7578C64.0742 69.4414 63.2442 69.7832 62.2676 69.7832C59.8262 69.7832 57.5313 70.2552 55.3828 71.1992C53.2669 72.1107 51.4115 73.3639 49.8164 74.959C48.2865 76.4889 47.0658 78.2793 46.1543 80.3301C45.2754 82.3483 44.8034 84.513 44.7383 86.8242V87.0683C44.9987 89.7376 45.8451 92.1628 47.2774 94.3437C48.7422 96.5247 50.6139 98.2663 52.8926 99.5683C55.2038 100.838 57.7429 101.473 60.5098 101.473H97.4727C100.663 101.473 103.625 100.822 106.359 99.5195C109.093 98.2174 111.438 96.4271 113.391 94.1484C115.377 91.8698 116.808 89.2819 117.688 86.3848Z" fill="#E06767"/>
</svg>
