<svg width="100" height="100" viewBox="0 0 100 100" fill="none" xmlns="http://www.w3.org/2000/svg"><g clip-path="url(#clip0_346_579)"><path d="M50 0C56.5661 7.82999e-08 63.0679 1.29329 69.1342 3.80602C75.2004 6.31876 80.7124 10.0017 85.3553 14.6447C89.9983 19.2876 93.6812 24.7996 96.194 30.8658C98.7067 36.9321 100 43.4339 100 50C100 56.5661 98.7067 63.0679 96.194 69.1342C93.6812 75.2005 89.9983 80.7124 85.3553 85.3553C80.7124 89.9983 75.2004 93.6812 69.1342 96.194C63.0679 98.7067 56.5661 100 50 100L50 50L50 0Z" fill="#FFB3B3"/><path d="M74.658 52.0418V55.8367V55.8369V55.8372V55.8375V55.8377V55.838V55.8383V55.8386V55.8388V55.8391V55.8394V55.8396V55.8399V55.8402V55.8405V55.8407V55.841V55.8413V55.8416V55.8418V55.8421V55.8424V55.8427V55.8429V55.8432V55.8435V55.8438V55.8441V55.8443V55.8446V55.8449V55.8452V55.8455V55.8457V55.846V55.8463V55.8466V55.8469V55.8471V55.8474V55.8477V55.848V55.8483V55.8486V55.8489V55.8491V55.8494V55.8497V55.85V55.8503V55.8506V55.8509V55.8511V55.8514V55.8517V55.852V55.8523V55.8526V55.8529V55.8532V55.8535V55.8537V55.854V55.8543V55.8546V55.8549V55.8552V55.8555V55.8558V55.8561V55.8564V55.8567V55.857V55.8573V55.8576V55.8578V55.8581V55.8584V55.8587V55.859V55.8593V55.8596V55.8599V55.8602V55.8605V55.8608V55.8611V55.8614V55.8617V55.862V55.8623V55.8626V55.8629V55.8632V55.8635V55.8638V55.8641V55.8644V55.8647V55.865V55.8654V55.8657V55.866V55.8663V55.8666V55.8669V55.8672V55.8675V55.8678V55.8681V55.8684V55.8687V55.869V55.8693V55.8696V55.87V55.8703V55.8706V55.8709V55.8712V55.8715V55.8718V55.8721V55.8724V55.8728V55.8731V55.8734V55.8737V55.874V55.8743V55.8746V55.875V55.8753V55.8756V55.8759V55.8762V55.8765V55.8769V55.8772V55.8775V55.8778V55.8781V55.8785V55.8788V55.8791V55.8794V55.8797V55.8801V55.8804V55.8807V55.881V55.8813V55.8817V55.8818C74.6444 55.9734 74.6354 56.0742 74.6354 56.1816V56.3075L74.6564 56.4315C74.6569 56.435 74.6575 56.4383 74.658 56.4414V56.4421V56.4428V56.4435V56.4442V56.445V56.4457V56.4464V56.4471V56.4478V56.4485V56.4492V56.45V56.4507V56.4514V56.4521V56.4528V56.4535V56.4542V56.4549V56.4556V56.4563V56.457V56.4577V56.4584V56.4591V56.4598V56.4605V56.4612V56.4619V56.4626V56.4633V56.464V56.4647V56.4654V56.4661V56.4668V56.4675V56.4682V56.4688V56.4695V56.4702V56.4709V56.4716V56.4723V56.473V56.4736V56.4743V56.475V56.4757V56.4764V56.477V56.4777V56.4784V56.4791V56.4797V56.4804V56.4811V56.4817V56.4824V56.4831V56.4838V56.4844V56.4851V56.4858V56.4864V56.4871V56.4878V56.4884V56.4891V56.4897V56.4904V56.4911V56.4917V56.4924V56.493V56.4937V56.4943V56.495V56.4956V56.4963V56.4969V56.4976V56.4982V56.4989V56.4995V56.5002V56.5008V56.5015V56.5021V56.5028V56.5034V56.504V56.5047V56.5053V56.506V56.5066V56.5072V56.5079V56.5085V56.5091V56.5098V56.5104V56.511V56.5117V56.5123V56.5129V56.5136V56.5142V56.5148V56.5154V56.5161V56.5167V56.5173V56.5179V56.5186V56.5192V56.5198V56.5204V56.521V56.5217V56.5223V56.5229V56.5235V56.5241V56.5247V56.5253V56.5259V56.5266V56.5272V56.5278V56.5284V56.529V56.5296V56.5302V56.5308V56.5314V56.532V56.5326V56.5332V56.5338V56.5344V56.535V56.5356V56.5362V56.5368V56.5374V56.538V56.5386V56.5392V56.5398V56.5403V56.5409V56.5415V56.5421V56.5427V56.5433V56.5439V56.5444V56.545V56.5456V56.5462V56.5468V56.5473V56.5479V56.5485V56.5491V56.5497V56.5502V56.5508V56.5514V56.552V56.5525V56.5531V56.5537V56.5542V56.5548V56.5554V56.5559V56.5565V56.5571V56.5576V56.5582V56.5588V56.5593V56.5599V56.5604V56.561V56.5615V56.5621V56.5627V56.5632V56.5638V56.5643V56.5649V56.5654V56.566V56.5665V56.5671V56.5676V56.5682V56.5687V56.5693V56.5698V56.5703V56.5709V56.5714V56.572V56.5725V56.573V56.5736V56.5741V56.5747V56.5752V56.5757V56.5763V56.5768V56.5773V56.5779V56.5784V56.5789V56.5794V56.58V56.5805V56.581V56.5815V56.5821V56.5826V56.5831V56.5836V56.5842V56.5847V56.5852V56.5857V56.5862V56.5867V56.5873V56.5878V56.5883V56.5888V56.5893V56.5898V56.5903V56.5908V56.5913V56.5919V56.5924V56.5929V56.5934V56.5939V56.5944V56.5949V56.5954V56.5959V56.5964V56.5969V56.5974V56.5979V56.5984V56.5989V56.5994V56.5998V56.6003V56.6008V56.6013V56.6018V56.6023V56.6025C74.6559 56.6124 74.653 56.625 74.6493 56.6404C74.6429 56.6663 74.6345 56.6981 74.6237 56.7362L74.5885 56.8596L74.5748 56.9872C74.5325 57.3801 74.4767 57.764 74.4071 58.139L74.4021 58.1659L74.3981 58.193C74.3479 58.5324 74.2728 58.8643 74.1726 59.1894L74.1701 59.1975L74.1677 59.2056C73.7324 60.6757 73.0415 61.9956 72.092 63.176L72.0907 63.1776C71.1556 64.3433 70.0239 65.3 68.6856 66.0509L68.68 66.0541C67.3654 66.7992 65.9339 67.2763 64.3717 67.4818L63.0673 67.6533V68.969V72.7554L58.3346 68.0439L57.8957 67.607H57.2764H45.501C44.0196 67.607 42.6702 67.2955 41.431 66.6828C40.183 66.0583 39.1276 65.2141 38.2527 64.1425C37.4006 63.0652 36.8163 61.8459 36.4981 60.4671L36.2298 59.3044H35.0366H32.9667C31.4131 59.3044 30.0309 58.933 28.7868 58.2031C27.5154 57.4418 26.5072 56.4333 25.7462 55.1616C25.0001 53.8998 24.6232 52.5103 24.6232 50.9609C24.6232 47.7035 25.23 44.6788 26.4331 41.871C27.6626 39.022 29.3499 36.5291 31.4975 34.3815C33.6454 32.2336 36.1303 30.5546 38.9623 29.3409L38.9656 29.3394C41.7894 28.1211 44.8213 27.5073 48.0768 27.5073H50.1237C53.2853 27.5073 56.2466 28.0648 59.0204 29.1714L59.0266 29.1739C61.8223 30.2747 64.3048 31.8059 66.4837 33.7684L66.4874 33.7718C68.684 35.7371 70.4753 38.0331 71.8648 40.6673L71.8679 40.6731C73.2632 43.2908 74.136 46.1283 74.4838 49.1979L74.4848 49.2063L74.4859 49.2147C74.543 49.6726 74.5859 50.1396 74.6151 50.6159L74.6152 50.6174C74.6438 51.0746 74.658 51.5494 74.658 52.0418Z" fill="white" stroke="#E06767" stroke-width="3"/></g><defs><clipPath id="clip0_346_579"><rect width="100" height="100" fill="white"/></clipPath></defs></svg>