<svg width="94" height="97" viewBox="0 0 94 97" fill="none" xmlns="http://www.w3.org/2000/svg">
<path d="M77.97 44.38L61.1801 54.0699L47.1901 46L33.2101 54.0699L16.4301 44.38L30.4201 36.3101L16.4301 28.24L33.2101 18.55L47.1901 26.62L63.98 36.3101L77.97 44.38Z" fill="#96D0F3" stroke="#2E222F" stroke-width="4" stroke-miterlimit="10" stroke-linejoin="round"/>
<path d="M77.97 44.38L61.1801 54.0699L47.1901 46L33.2101 54.0699L16.4301 44.38L30.4201 36.3101L16.4301 28.24L33.2101 18.55L47.1901 26.62L63.98 36.3101L77.97 44.38Z" fill="#96D0F3" stroke="#2E222F" stroke-width="4" stroke-miterlimit="10" stroke-linejoin="round"/>
<path d="M16.4301 20.24L30.4101 28.3101L16.4201 36.38L2.45007 28.3101L8.04007 25.08L16.4301 20.24Z" fill="#94C468" stroke="#2E222F" stroke-width="4" stroke-miterlimit="10" stroke-linejoin="round"/>
<path d="M47.1901 38L61.17 46.0699L52.7701 50.92L47.1801 54.15L33.2001 46.0699L47.1901 38Z" fill="#94C468" stroke="#2E222F" stroke-width="4" stroke-miterlimit="10" stroke-linejoin="round"/>
<path d="M91.9401 28.3101L86.35 31.54L77.9601 36.38L63.97 28.3101L47.1901 18.62L33.2001 10.55L41.5901 5.69995L47.1801 2.46997L91.9401 28.3101Z" fill="#94C468" stroke="#2E222F" stroke-width="4" stroke-miterlimit="10" stroke-linejoin="round"/>
<path d="M33.2101 18.55L33.2001 10.55L77.9601 36.38L77.97 44.38L33.2101 18.55Z" fill="#3BAF71" stroke="#2E222F" stroke-width="4" stroke-miterlimit="10" stroke-linejoin="round"/>
<path d="M30.41 28.3101L30.42 36.3101L16.43 44.38L16.42 36.38L30.41 28.3101Z" fill="#219063" stroke="#2E222F" stroke-width="4" stroke-miterlimit="10" stroke-linejoin="round"/>
<path d="M61.18 54.0699L61.17 46.0699L54.24 50.0699L61.18 54.0699Z" fill="#3BAF71" stroke="#2E222F" stroke-width="4" stroke-miterlimit="10" stroke-linejoin="round"/>
<path d="M33.2101 54.0699V46.0699L40.1301 50.08L33.2101 54.0699Z" fill="#219063" stroke="#2E222F" stroke-width="4" stroke-miterlimit="10" stroke-linejoin="round"/>
<path d="M2.44006 48.3101V68.3101L47.1901 94.15V74.15L2.44006 48.3101Z" fill="#CD693D" stroke="#2E222F" stroke-width="4" stroke-miterlimit="10" stroke-linejoin="round"/>
<path d="M91.9401 48.3101V68.3101L47.1901 94.15V74.15L91.9401 48.3101Z" fill="#9F463A" stroke="#2E222F" stroke-width="4" stroke-miterlimit="10" stroke-linejoin="round"/>
<path d="M61.17 46.0699V54.08L77.9601 44.39V36.38L91.9401 28.3V48.3101L47.1901 74.15L47.2001 54.15L61.17 46.0699Z" fill="#219063" stroke="#2E222F" stroke-width="4" stroke-miterlimit="10" stroke-linejoin="round"/>
<path d="M33.2201 46.0699V54.08L16.4301 44.39V36.38L2.45007 28.3V48.3101L47.1901 74.15V54.15L33.2201 46.0699Z" fill="#3BAF71" stroke="#2E222F" stroke-width="4" stroke-miterlimit="10" stroke-linejoin="round"/>
</svg>
