<svg width="94" height="96" viewBox="0 0 94 96" fill="none" xmlns="http://www.w3.org/2000/svg">
<path d="M91.7001 28.1L86.1001 24.87L52.5201 5.48999L46.9301 2.26001L2.20007 28.1L7.79007 31.33L41.3401 50.71L46.9301 53.9399L91.7001 28.1Z" fill="#94C468" stroke="#2E222F" stroke-width="4" stroke-miterlimit="10" stroke-linejoin="round"/>
<path d="M77.71 20.03L63.72 28.1L46.94 37.79L32.95 45.87L16.18 36.1801L30.16 28.1L16.17 20.03L32.95 10.34L46.94 18.41L60.92 10.34L77.71 20.03Z" fill="#E58F4D" stroke="#2E222F" stroke-width="4" stroke-miterlimit="10" stroke-linejoin="round"/>
<path d="M91.7001 48.09V68.09L46.9501 93.9399V73.9399L91.7001 48.09Z" fill="#9F463A" stroke="#2E222F" stroke-width="4" stroke-miterlimit="10" stroke-linejoin="round"/>
<path d="M2.20007 28.09V48.09L46.9501 73.9399V53.9399L2.20007 28.09Z" fill="#3BAF71" stroke="#2E222F" stroke-width="4" stroke-miterlimit="10" stroke-linejoin="round"/>
<path d="M91.7001 28.09V48.09L46.9501 73.9399V53.9399L91.7001 28.09Z" fill="#219063" stroke="#2E222F" stroke-width="4" stroke-miterlimit="10" stroke-linejoin="round"/>
<path d="M16.1801 56.17V36.17L32.9701 45.86V65.87L46.9401 73.9399V93.9399L2.20007 68.09V48.09L16.1801 56.17Z" fill="#CD693D" stroke="#2E222F" stroke-width="4" stroke-miterlimit="10" stroke-linejoin="round"/>
</svg>
