<svg width="95" height="96" viewBox="0 0 95 96" fill="none" xmlns="http://www.w3.org/2000/svg">
<path d="M47.61 53.96L53.21 50.73L86.77 31.34L92.36 28.11L47.62 2.28003L42.02 5.51001L8.46001 24.88L2.87 28.11L47.61 53.96Z" fill="#94C468" stroke="#2E222F" stroke-width="4" stroke-miterlimit="10" stroke-linejoin="round"/>
<path d="M61.6 45.88L30.83 28.12L61.6 10.35L78.3699 20.04L64.3999 28.12L78.38 36.1899L61.6 45.88Z" fill="#E58F4D" stroke="#2E222F" stroke-width="4" stroke-miterlimit="10" stroke-linejoin="round"/>
<path d="M2.87 48.11V68.11L47.62 93.96V73.96L2.87 48.11Z" fill="#CD693D" stroke="#2E222F" stroke-width="4" stroke-miterlimit="10" stroke-linejoin="round"/>
<path d="M2.87 28.11V48.11L47.62 73.96V53.96L2.87 28.11Z" fill="#3BAF71" stroke="#2E222F" stroke-width="4" stroke-miterlimit="10" stroke-linejoin="round"/>
<path d="M92.36 28.11V48.11L47.62 73.96V53.96L92.36 28.11Z" fill="#219063" stroke="#2E222F" stroke-width="4" stroke-miterlimit="10" stroke-linejoin="round"/>
<path d="M78.38 56.1899V36.1899L61.59 45.88V65.88L47.62 73.96V93.96L92.36 68.11V48.11L78.38 56.1899Z" fill="#9F463A" stroke="#2E222F" stroke-width="4" stroke-miterlimit="10" stroke-linejoin="round"/>
</svg>
