<svg width="95" height="97" viewBox="0 0 95 97" fill="none" xmlns="http://www.w3.org/2000/svg">
<path d="M78.3301 28.49L33.5701 54.33L16.8 44.64L61.54 18.8L78.3301 28.49Z" fill="#96D0F3" stroke="#2E222F" stroke-width="4" stroke-miterlimit="10" stroke-linejoin="round"/>
<path d="M78.3301 28.49L33.5701 54.33L16.8 44.64L61.54 18.8L78.3301 28.49Z" fill="#96D0F3" stroke="#2E222F" stroke-width="4" stroke-miterlimit="10" stroke-linejoin="round"/>
<path d="M16.8 44.64V36.64L61.55 10.8101V18.8L16.8 44.64Z" fill="#219063" stroke="#2E222F" stroke-width="4" stroke-miterlimit="10" stroke-linejoin="round"/>
<path d="M33.5801 46.33V54.33L40.5101 50.33L33.5801 46.33Z" fill="#219063" stroke="#2E222F" stroke-width="4" stroke-miterlimit="10" stroke-linejoin="round"/>
<path d="M47.56 38.33V46.33L30.79 36.5601V28.5601L47.56 38.33Z" fill="#CD693D" stroke="#2E222F" stroke-width="4" stroke-miterlimit="10" stroke-linejoin="round"/>
<path d="M61.55 10.8101L16.8 36.64L8.40005 31.79L2.81006 28.5601L47.5601 2.72998L53.16 5.95996L61.55 10.8101Z" fill="#94C468" stroke="#2E222F" stroke-width="4" stroke-miterlimit="10" stroke-linejoin="round"/>
<path d="M92.3101 28.5601L47.5601 54.41L41.9701 51.1801L33.5801 46.33L78.3301 20.49L86.7101 25.33L92.3101 28.5601Z" fill="#94C468" stroke="#2E222F" stroke-width="4" stroke-miterlimit="10" stroke-linejoin="round"/>
<path d="M61.55 46.33L78.3201 36.63L33.58 10.8L16.8 20.49L61.55 46.33Z" fill="#E58F4D" stroke="#2E222F" stroke-width="4" stroke-miterlimit="10" stroke-linejoin="round"/>
<path d="M2.81006 48.5601V68.5601L47.5601 94.41V74.41L2.81006 48.5601Z" fill="#CD693D" stroke="#2E222F" stroke-width="4" stroke-miterlimit="10" stroke-linejoin="round"/>
<path d="M92.3101 28.5601V48.5601L47.5601 74.41V54.41L92.3101 28.5601Z" fill="#219063" stroke="#2E222F" stroke-width="4" stroke-miterlimit="10" stroke-linejoin="round"/>
<path d="M33.58 46.33V54.33L16.7901 44.64V36.64L2.81006 28.5601V48.5601L47.5601 74.41L47.55 54.41L33.58 46.33Z" fill="#3BAF71" stroke="#2E222F" stroke-width="4" stroke-miterlimit="10" stroke-linejoin="round"/>
<path d="M78.3301 56.63V36.64L61.54 46.33V66.33L47.5601 74.41V94.41L92.3101 68.5601V48.5601L78.3301 56.63Z" fill="#9F463A" stroke="#2E222F" stroke-width="4" stroke-miterlimit="10" stroke-linejoin="round"/>
</svg>
