<svg width="95" height="96" viewBox="0 0 95 96" fill="none" xmlns="http://www.w3.org/2000/svg">
<path d="M78.36 44.1899L61.5801 53.87L47.6 45.8L33.61 53.87L16.8301 44.1899L47.6 26.42L78.36 44.1899Z" fill="#96D0F3" stroke="#2E222F" stroke-width="4" stroke-miterlimit="10" stroke-linejoin="round"/>
<path d="M78.36 44.1899L61.5801 53.87L47.6 45.8L33.61 53.87L16.8301 44.1899L47.6 26.42L78.36 44.1899Z" fill="#96D0F3" stroke="#2E222F" stroke-width="4" stroke-miterlimit="10" stroke-linejoin="round"/>
<path d="M61.5901 45.86L47.6201 53.9399L42.0201 50.71L33.6301 45.86L47.6101 37.79L61.5901 45.86Z" fill="#94C468" stroke="#2E222F" stroke-width="4" stroke-miterlimit="10" stroke-linejoin="round"/>
<path d="M92.3501 28.1L78.3701 36.1801L47.6101 18.41L16.8501 36.1801H16.8401L8.45013 31.33L2.8501 28.1L47.6201 2.26001L53.2101 5.48999L86.7601 24.87L92.3501 28.1Z" fill="#94C468" stroke="#2E222F" stroke-width="4" stroke-miterlimit="10" stroke-linejoin="round"/>
<path d="M16.8301 44.1899L47.6 26.42L47.61 18.41L16.85 36.1801L16.8301 44.1899Z" fill="#219063" stroke="#2E222F" stroke-width="4" stroke-miterlimit="10" stroke-linejoin="round"/>
<path d="M78.3601 44.1899V36.1801L47.6101 18.41L47.6001 26.42L78.3601 44.1899Z" fill="#3BAF71" stroke="#2E222F" stroke-width="4" stroke-miterlimit="10" stroke-linejoin="round"/>
<path d="M61.5902 53.87V45.87L54.6602 49.87L61.5902 53.87Z" fill="#3BAF71" stroke="#2E222F" stroke-width="4" stroke-miterlimit="10" stroke-linejoin="round"/>
<path d="M33.6201 53.87V45.87L40.5401 49.87L33.6201 53.87Z" fill="#219063" stroke="#2E222F" stroke-width="4" stroke-miterlimit="10" stroke-linejoin="round"/>
<path d="M2.8501 48.09V68.09L47.6001 93.9399V73.9399L2.8501 48.09Z" fill="#CD693D" stroke="#2E222F" stroke-width="4" stroke-miterlimit="10" stroke-linejoin="round"/>
<path d="M92.3501 48.09V68.09L47.6001 93.9399V73.9399L92.3501 48.09Z" fill="#9F463A" stroke="#2E222F" stroke-width="4" stroke-miterlimit="10" stroke-linejoin="round"/>
<path d="M61.5801 45.86V53.87L78.3701 44.1801V36.17L92.3501 28.09V48.09L47.6001 73.9399L47.6101 53.9399L61.5801 45.86Z" fill="#219063" stroke="#2E222F" stroke-width="4" stroke-miterlimit="10" stroke-linejoin="round"/>
<path d="M33.6201 45.86V53.87L16.8301 44.1801V36.17L2.8501 28.09V48.09L47.6001 73.9399L47.5901 53.9399L33.6201 45.86Z" fill="#3BAF71" stroke="#2E222F" stroke-width="4" stroke-miterlimit="10" stroke-linejoin="round"/>
</svg>
