<svg width="95" height="96" viewBox="0 0 95 96" fill="none" xmlns="http://www.w3.org/2000/svg">
<path d="M16.67 44.1899L33.4601 53.88L64.22 36.12L47.4401 26.4301L16.67 44.1899Z" fill="#96D0F3" stroke="#2E222F" stroke-width="4" stroke-miterlimit="10" stroke-linejoin="round"/>
<path d="M2.68005 28.12L8.27008 31.35L16.66 36.1899L47.4401 18.4301L64.2101 28.12L33.4501 45.88L41.85 50.73L47.4401 53.96L92.1801 28.12L86.5901 24.89L53.0301 5.51001L47.4401 2.28003L2.68005 28.12Z" fill="#94C468" stroke="#2E222F" stroke-width="4" stroke-miterlimit="10" stroke-linejoin="round"/>
<path d="M47.4401 26.4301V18.4301L64.2101 28.12L57.29 32.12L47.4401 26.4301Z" fill="#3BAF71" stroke="#2E222F" stroke-width="4" stroke-miterlimit="10" stroke-linejoin="round"/>
<path d="M16.67 44.1899V36.1899L47.4401 18.4301V26.4301L16.67 44.1899Z" fill="#219063" stroke="#2E222F" stroke-width="4" stroke-miterlimit="10" stroke-linejoin="round"/>
<path d="M33.4601 53.88V45.88L40.3801 49.88L33.4601 53.88Z" fill="#219063" stroke="#2E222F" stroke-width="4" stroke-miterlimit="10" stroke-linejoin="round"/>
<path d="M92.1801 48.11V68.11L47.4301 93.96V73.96L92.1801 48.11Z" fill="#9F463A" stroke="#2E222F" stroke-width="4" stroke-miterlimit="10" stroke-linejoin="round"/>
<path d="M2.68005 48.11V68.11L47.4301 93.96V73.96L2.68005 48.11Z" fill="#CD693D" stroke="#2E222F" stroke-width="4" stroke-miterlimit="10" stroke-linejoin="round"/>
<path d="M92.1801 28.11V48.11L47.4301 73.96V53.96L92.1801 28.11Z" fill="#219063" stroke="#2E222F" stroke-width="4" stroke-miterlimit="10" stroke-linejoin="round"/>
<path d="M33.4501 45.88V53.88L16.66 44.1899V36.1899L2.68005 28.11V48.11L47.4301 73.96L47.42 53.96L33.4501 45.88Z" fill="#3BAF71" stroke="#2E222F" stroke-width="4" stroke-miterlimit="10" stroke-linejoin="round"/>
</svg>
