<svg width="95" height="97" viewBox="0 0 95 97" fill="none" xmlns="http://www.w3.org/2000/svg">
<path d="M64.47 36.3199L78.4501 44.39L61.6801 54.08L47.6901 46.01L30.91 36.3199L16.9301 28.24L33.7101 18.55L47.6901 26.63L61.67 18.5601L78.4501 28.24L64.47 36.3199Z" fill="#96D0F3" stroke="#2E222F" stroke-width="4" stroke-miterlimit="10" stroke-linejoin="round"/>
<path d="M64.47 36.3199L78.4501 44.39L61.6801 54.08L47.6901 46.01L30.91 36.3199L16.9301 28.24L33.7101 18.55L47.6901 26.63L61.67 18.5601L78.4501 28.24L64.47 36.3199Z" fill="#96D0F3" stroke="#2E222F" stroke-width="4" stroke-miterlimit="10" stroke-linejoin="round"/>
<path d="M47.7001 38L61.6901 46.0699L53.3 50.92L47.7101 54.15L2.94006 28.3101L8.54004 25.08L16.9301 20.23H16.9401L30.92 28.3101L47.7001 38Z" fill="#94C468" stroke="#2E222F" stroke-width="4" stroke-miterlimit="10" stroke-linejoin="round"/>
<path d="M47.7 18.62L33.72 10.55L42.11 5.69995L47.71 2.46997L61.68 10.55L47.7 18.62Z" fill="#94C468" stroke="#2E222F" stroke-width="4" stroke-miterlimit="10" stroke-linejoin="round"/>
<path d="M92.44 28.3101L86.85 31.54L78.46 36.38L64.48 28.3101L78.46 20.23L92.44 28.3101Z" fill="#94C468" stroke="#2E222F" stroke-width="4" stroke-miterlimit="10" stroke-linejoin="round"/>
<path d="M33.72 10.55L47.7001 18.62L47.6901 26.63L33.7101 18.55L33.72 10.55Z" fill="#3BAF71" stroke="#2E222F" stroke-width="4" stroke-miterlimit="10" stroke-linejoin="round"/>
<path d="M61.6801 10.55L61.67 18.5601L47.6901 26.63L47.7001 18.62L61.6801 10.55Z" fill="#219063" stroke="#2E222F" stroke-width="4" stroke-miterlimit="10" stroke-linejoin="round"/>
<path d="M78.46 36.38L78.45 44.39L64.47 36.3199L64.48 28.3101L78.46 36.38Z" fill="#3BAF71" stroke="#2E222F" stroke-width="4" stroke-miterlimit="10" stroke-linejoin="round"/>
<path d="M61.69 46.0699V54.08L54.76 50.08L61.69 46.0699Z" fill="#3BAF71" stroke="#2E222F" stroke-width="4" stroke-miterlimit="10" stroke-linejoin="round"/>
<path d="M2.94006 48.3101V68.3101L47.6901 94.15V74.15L2.94006 48.3101Z" fill="#CD693D" stroke="#2E222F" stroke-width="4" stroke-miterlimit="10" stroke-linejoin="round"/>
<path d="M92.4401 48.3101V68.3101L47.6901 94.15V74.15L92.4401 48.3101Z" fill="#9F463A" stroke="#2E222F" stroke-width="4" stroke-miterlimit="10" stroke-linejoin="round"/>
<path d="M2.94006 28.3101V48.3101L47.6901 74.15V54.15L2.94006 28.3101Z" fill="#3BAF71" stroke="#2E222F" stroke-width="4" stroke-miterlimit="10" stroke-linejoin="round"/>
<path d="M61.67 46.0699V54.08L78.4601 44.39V36.38L92.4401 28.3V48.3101L47.6901 74.15L47.7001 54.15L61.67 46.0699Z" fill="#219063" stroke="#2E222F" stroke-width="4" stroke-miterlimit="10" stroke-linejoin="round"/>
</svg>
