<svg width="94" height="96" viewBox="0 0 94 96" fill="none" xmlns="http://www.w3.org/2000/svg">
<path d="M2.20007 28.12L7.79007 31.35L41.3701 50.73L46.9601 53.96L91.7001 28.12L86.1001 24.89L52.55 5.51001L46.9601 2.28003L2.20007 28.12Z" fill="#94C468" stroke="#2E222F" stroke-width="4" stroke-miterlimit="10" stroke-linejoin="round"/>
<path d="M16.1801 36.2L46.9501 18.4301L77.7201 36.2L60.9401 45.88L46.9501 37.8101L32.9701 45.88L16.1801 36.2Z" fill="#E58F4D" stroke="#2E222F" stroke-width="4" stroke-miterlimit="10" stroke-linejoin="round"/>
<path d="M2.20007 28.11V48.11L46.9501 73.96V53.96L2.20007 28.11Z" fill="#3BAF71" stroke="#2E222F" stroke-width="4" stroke-miterlimit="10" stroke-linejoin="round"/>
<path d="M91.7001 28.11V48.11L46.9501 73.96V53.96L91.7001 28.11Z" fill="#219063" stroke="#2E222F" stroke-width="4" stroke-miterlimit="10" stroke-linejoin="round"/>
<path d="M77.7201 56.1899V36.1899L60.9301 45.88V65.88L46.9501 73.96V93.96L91.7001 68.11V48.11L77.7201 56.1899Z" fill="#9F463A" stroke="#2E222F" stroke-width="4" stroke-miterlimit="10" stroke-linejoin="round"/>
<path d="M16.1801 56.1899V36.1899L32.9701 45.88V65.88L46.9501 73.96V93.96L2.20007 68.11V48.11L16.1801 56.1899Z" fill="#CD693D" stroke="#2E222F" stroke-width="4" stroke-miterlimit="10" stroke-linejoin="round"/>
</svg>
