<svg width="94" height="96" viewBox="0 0 94 96" fill="none" xmlns="http://www.w3.org/2000/svg">
<path d="M91.55 28.1L85.95 31.33L52.38 50.71L46.78 53.9399L2.05005 28.1L7.64005 24.87L41.1901 5.48999L46.78 2.26001L91.55 28.1Z" fill="#94C468" stroke="#2E222F" stroke-width="4" stroke-miterlimit="10" stroke-linejoin="round"/>
<path d="M77.56 36.1801L63.57 28.1L46.79 18.41L32.8 10.34L16.03 20.03L30.01 28.1L16.02 36.1801L32.81 45.86L46.79 37.79L60.77 45.86L77.56 36.1801Z" fill="#E58F4D" stroke="#2E222F" stroke-width="4" stroke-miterlimit="10" stroke-linejoin="round"/>
<path d="M2.05005 28.09V48.09L46.8001 73.9399V53.9399L2.05005 28.09Z" fill="#3BAF71" stroke="#2E222F" stroke-width="4" stroke-miterlimit="10" stroke-linejoin="round"/>
<path d="M91.55 28.09V48.09L46.8 73.9399V53.9399L91.55 28.09Z" fill="#219063" stroke="#2E222F" stroke-width="4" stroke-miterlimit="10" stroke-linejoin="round"/>
<path d="M77.57 56.17V36.17L60.78 45.86V65.87L46.8 73.9399V93.9399L91.55 68.09V48.09L77.57 56.17Z" fill="#9F463A" stroke="#2E222F" stroke-width="4" stroke-miterlimit="10" stroke-linejoin="round"/>
<path d="M16.03 56.17V36.17L32.82 45.86V65.87L46.8001 73.9399V93.9399L2.05005 68.09V48.09L16.03 56.17Z" fill="#CD693D" stroke="#2E222F" stroke-width="4" stroke-miterlimit="10" stroke-linejoin="round"/>
</svg>
