<svg width="94" height="96" viewBox="0 0 94 96" fill="none" xmlns="http://www.w3.org/2000/svg">
<path d="M46.8001 53.96L41.2 50.73L7.64005 31.34L2.05005 28.11L46.8001 2.28003L52.39 5.51001L85.95 24.88L91.55 28.11L46.8001 53.96Z" fill="#94C468" stroke="#2E222F" stroke-width="4" stroke-miterlimit="10" stroke-linejoin="round"/>
<path d="M32.81 45.88L63.58 28.12L32.81 10.35L16.04 20.04L30.02 28.12L16.03 36.1899L32.81 45.88Z" fill="#E58F4D" stroke="#2E222F" stroke-width="4" stroke-miterlimit="10" stroke-linejoin="round"/>
<path d="M91.55 48.11V68.11L46.8 93.96V73.96L91.55 48.11Z" fill="#9F463A" stroke="#2E222F" stroke-width="4" stroke-miterlimit="10" stroke-linejoin="round"/>
<path d="M2.05005 28.11V48.11L46.8001 73.96V53.96L2.05005 28.11Z" fill="#3BAF71" stroke="#2E222F" stroke-width="4" stroke-miterlimit="10" stroke-linejoin="round"/>
<path d="M91.55 28.11V48.11L46.8 73.96V53.96L91.55 28.11Z" fill="#219063" stroke="#2E222F" stroke-width="4" stroke-miterlimit="10" stroke-linejoin="round"/>
<path d="M16.03 56.1899V36.1899L32.82 45.88V65.88L46.8001 73.96V93.96L2.05005 68.11V48.11L16.03 56.1899Z" fill="#CD693D" stroke="#2E222F" stroke-width="4" stroke-miterlimit="10" stroke-linejoin="round"/>
</svg>
