<svg width="95" height="97" viewBox="0 0 95 97" fill="none" xmlns="http://www.w3.org/2000/svg">
<path d="M78.4501 44.54L61.67 54.23L16.92 28.39L33.7001 18.71L78.4501 44.54Z" fill="#96D0F3" stroke="#2E222F" stroke-width="4" stroke-miterlimit="10" stroke-linejoin="round"/>
<path d="M78.4501 44.54L61.67 54.23L16.92 28.39L33.7001 18.71L78.4501 44.54Z" fill="#96D0F3" stroke="#2E222F" stroke-width="4" stroke-miterlimit="10" stroke-linejoin="round"/>
<path d="M16.92 20.39L61.67 46.23L53.2801 51.08L47.6901 54.3101L2.94006 28.46L8.53009 25.23L16.92 20.39Z" fill="#94C468" stroke="#2E222F" stroke-width="4" stroke-miterlimit="10" stroke-linejoin="round"/>
<path d="M92.4401 28.46L86.8401 31.6899L78.4501 36.54L33.7001 10.71L42.0901 5.85999L47.6901 2.63L92.4401 28.46Z" fill="#94C468" stroke="#2E222F" stroke-width="4" stroke-miterlimit="10" stroke-linejoin="round"/>
<path d="M33.7001 18.71V10.71L78.4501 36.54V44.54L33.7001 18.71Z" fill="#3BAF71" stroke="#2E222F" stroke-width="4" stroke-miterlimit="10" stroke-linejoin="round"/>
<path d="M61.67 54.23V46.23L54.75 50.23L61.67 54.23Z" fill="#3BAF71" stroke="#2E222F" stroke-width="4" stroke-miterlimit="10" stroke-linejoin="round"/>
<path d="M2.94006 48.47V68.47L47.6901 94.3101V74.3101L2.94006 48.47Z" fill="#CD693D" stroke="#2E222F" stroke-width="4" stroke-miterlimit="10" stroke-linejoin="round"/>
<path d="M92.4401 48.46V68.46L47.6901 94.3101V74.3101L92.4401 48.46Z" fill="#9F463A" stroke="#2E222F" stroke-width="4" stroke-miterlimit="10" stroke-linejoin="round"/>
<path d="M2.94006 28.47V48.47L47.6901 74.3101V54.3101L2.94006 28.47Z" fill="#3BAF71" stroke="#2E222F" stroke-width="4" stroke-miterlimit="10" stroke-linejoin="round"/>
<path d="M61.67 46.23V54.24L78.4601 44.55V36.54L92.4401 28.46V48.46L47.6901 74.3101L47.7001 54.3101L61.67 46.23Z" fill="#219063" stroke="#2E222F" stroke-width="4" stroke-miterlimit="10" stroke-linejoin="round"/>
</svg>
