<svg width="94" height="96" viewBox="0 0 94 96" fill="none" xmlns="http://www.w3.org/2000/svg">
<path d="M2.45007 28.12L8.04007 24.89L41.6201 5.51001L47.2101 2.28003L91.9401 28.12L86.3501 31.35L52.8 50.73L47.2101 53.96L2.45007 28.12Z" fill="#94C468" stroke="#2E222F" stroke-width="4" stroke-miterlimit="10" stroke-linejoin="round"/>
<path d="M16.4301 20.04L47.2001 37.8101L77.9701 20.04L61.1801 10.36L47.2001 18.4301L33.2201 10.36L16.4301 20.04Z" fill="#E58F4D" stroke="#2E222F" stroke-width="4" stroke-miterlimit="10" stroke-linejoin="round"/>
<path d="M2.45007 48.11V68.11L47.2001 93.96V73.96L2.45007 48.11Z" fill="#CD693D" stroke="#2E222F" stroke-width="4" stroke-miterlimit="10" stroke-linejoin="round"/>
<path d="M91.9401 48.11V68.11L47.2001 93.96V73.96L91.9401 48.11Z" fill="#9F463A" stroke="#2E222F" stroke-width="4" stroke-miterlimit="10" stroke-linejoin="round"/>
<path d="M2.45007 28.11V48.11L47.2001 73.96V53.96L2.45007 28.11Z" fill="#3BAF71" stroke="#2E222F" stroke-width="4" stroke-miterlimit="10" stroke-linejoin="round"/>
<path d="M91.9401 28.11V48.11L47.2001 73.96V53.96L91.9401 28.11Z" fill="#219063" stroke="#2E222F" stroke-width="4" stroke-miterlimit="10" stroke-linejoin="round"/>
</svg>
