<svg width="94" height="97" viewBox="0 0 94 97" fill="none" xmlns="http://www.w3.org/2000/svg">
<path d="M46.9501 54.15L41.3501 50.92L7.79007 31.54L2.20007 28.3101L46.9501 2.47998L52.5401 5.70996L86.1001 25.08L91.7001 28.3101L46.9501 54.15Z" fill="#94C468" stroke="#2E222F" stroke-width="4" stroke-miterlimit="10" stroke-linejoin="round"/>
<path d="M77.7201 36.39L63.7301 28.3101L77.7101 20.23L60.9301 10.55L46.9501 18.62L32.9601 10.55L16.1901 20.24L30.1701 28.3101L16.1801 36.38L32.9601 46.08L46.9501 38L60.9301 46.0699L77.7201 36.39Z" fill="#E58F4D" stroke="#2E222F" stroke-width="4" stroke-miterlimit="10" stroke-linejoin="round"/>
<path d="M2.20007 28.3101V48.3101L46.9501 74.15V54.15L2.20007 28.3101Z" fill="#3BAF71" stroke="#2E222F" stroke-width="4" stroke-miterlimit="10" stroke-linejoin="round"/>
<path d="M91.7001 28.3101V48.3101L46.9501 74.15V54.15L91.7001 28.3101Z" fill="#219063" stroke="#2E222F" stroke-width="4" stroke-miterlimit="10" stroke-linejoin="round"/>
<path d="M77.7201 56.38V36.39L60.9301 46.0699V66.08L46.9501 74.15V94.15L91.7001 68.3101V48.3101L77.7201 56.38Z" fill="#9F463A" stroke="#2E222F" stroke-width="4" stroke-miterlimit="10" stroke-linejoin="round"/>
<path d="M16.1801 56.38V36.39L32.9701 46.0699V66.08L46.9501 74.15V94.15L2.20007 68.3101V48.3101L16.1801 56.38Z" fill="#CD693D" stroke="#2E222F" stroke-width="4" stroke-miterlimit="10" stroke-linejoin="round"/>
</svg>
