<svg width="95" height="97" viewBox="0 0 95 97" fill="none" xmlns="http://www.w3.org/2000/svg">
<path d="M16.67 44.54L33.4501 54.23L78.2001 28.39L61.42 18.71L16.67 44.54Z" fill="#96D0F3" stroke="#2E222F" stroke-width="4" stroke-miterlimit="10" stroke-linejoin="round"/>
<path d="M16.67 44.54L33.4501 54.23L78.2001 28.39L61.42 18.71L16.67 44.54Z" fill="#96D0F3" stroke="#2E222F" stroke-width="4" stroke-miterlimit="10" stroke-linejoin="round"/>
<path d="M78.2001 20.39L33.4501 46.23L41.8401 51.08L47.4301 54.3101L92.1801 28.46L86.5901 25.23L78.2001 20.39Z" fill="#94C468" stroke="#2E222F" stroke-width="4" stroke-miterlimit="10" stroke-linejoin="round"/>
<path d="M2.68005 28.46L8.28009 31.6899L16.67 36.54L61.42 10.71L53.0301 5.85999L47.4301 2.63L2.68005 28.46Z" fill="#94C468" stroke="#2E222F" stroke-width="4" stroke-miterlimit="10" stroke-linejoin="round"/>
<path d="M61.42 18.71V10.71L16.67 36.54V44.54L61.42 18.71Z" fill="#219063" stroke="#2E222F" stroke-width="4" stroke-miterlimit="10" stroke-linejoin="round"/>
<path d="M33.4501 54.23V46.23L40.3701 50.23L33.4501 54.23Z" fill="#3BAF71" stroke="#2E222F" stroke-width="4" stroke-miterlimit="10" stroke-linejoin="round"/>
<path d="M92.1801 48.47V68.47L47.4301 94.3101V74.3101L92.1801 48.47Z" fill="#9F463A" stroke="#2E222F" stroke-width="4" stroke-miterlimit="10" stroke-linejoin="round"/>
<path d="M2.68005 48.46V68.46L47.4301 94.3101V74.3101L2.68005 48.46Z" fill="#CD693D" stroke="#2E222F" stroke-width="4" stroke-miterlimit="10" stroke-linejoin="round"/>
<path d="M92.1801 28.47V48.47L47.4301 74.3101V54.3101L92.1801 28.47Z" fill="#219063" stroke="#2E222F" stroke-width="4" stroke-miterlimit="10" stroke-linejoin="round"/>
<path d="M33.4501 46.23V54.24L16.66 44.55V36.54L2.68005 28.46V48.46L47.4301 74.3101L47.42 54.3101L33.4501 46.23Z" fill="#3BAF71" stroke="#2E222F" stroke-width="4" stroke-miterlimit="10" stroke-linejoin="round"/>
</svg>
