<svg width="95" height="96" viewBox="0 0 95 96" fill="none" xmlns="http://www.w3.org/2000/svg">
<path d="M61.67 18.36L78.4501 28.05L47.6901 45.8101L30.91 36.13L61.67 18.36Z" fill="#96D0F3" stroke="#2E222F" stroke-width="4" stroke-miterlimit="10" stroke-linejoin="round"/>
<path d="M92.4401 28.13L47.6901 53.96L42.0901 50.73L8.53009 31.36L2.94006 28.13L47.6901 2.28003L53.2801 5.51001L61.67 10.36L30.91 28.13L47.6901 37.8101L78.4501 20.05L86.8401 24.9L92.4401 28.13Z" fill="#94C468" stroke="#2E222F" stroke-width="4" stroke-miterlimit="10" stroke-linejoin="round"/>
<path d="M61.67 18.36V10.36L30.91 28.13L37.8301 32.12L61.67 18.36Z" fill="#219063" stroke="#2E222F" stroke-width="4" stroke-miterlimit="10" stroke-linejoin="round"/>
<path d="M2.94006 48.11V68.11L47.6901 93.96V73.96L2.94006 48.11Z" fill="#CD693D" stroke="#2E222F" stroke-width="4" stroke-miterlimit="10" stroke-linejoin="round"/>
<path d="M92.4401 48.11V68.11L47.6901 93.96V73.96L92.4401 48.11Z" fill="#9F463A" stroke="#2E222F" stroke-width="4" stroke-miterlimit="10" stroke-linejoin="round"/>
<path d="M2.94006 28.11V48.11L47.6901 73.96V53.96L2.94006 28.11Z" fill="#3BAF71" stroke="#2E222F" stroke-width="4" stroke-miterlimit="10" stroke-linejoin="round"/>
<path d="M92.4401 28.11V48.11L47.6901 73.96V53.96L92.4401 28.11Z" fill="#219063" stroke="#2E222F" stroke-width="4" stroke-miterlimit="10" stroke-linejoin="round"/>
</svg>
