<svg width="95" height="96" viewBox="0 0 95 96" fill="none" xmlns="http://www.w3.org/2000/svg">
<path d="M64.5101 36.1L33.7501 53.87H33.7401L16.9601 44.17L30.9401 36.1L16.9701 28.02L33.7401 18.33L64.5101 36.1Z" fill="#96D0F3" stroke="#2E222F" stroke-width="4" stroke-miterlimit="10" stroke-linejoin="round"/>
<path d="M64.5101 36.1L33.7501 53.87H33.7401L16.9601 44.17L30.9401 36.1L16.9701 28.02L33.7401 18.33L64.5101 36.1Z" fill="#96D0F3" stroke="#2E222F" stroke-width="4" stroke-miterlimit="10" stroke-linejoin="round"/>
<path d="M16.9601 20.02L30.9401 28.1L16.9501 36.17L8.56009 31.3199L2.97009 28.09L16.9601 20.02Z" fill="#94C468" stroke="#2E222F" stroke-width="4" stroke-miterlimit="10" stroke-linejoin="round"/>
<path d="M92.4701 28.09L47.7201 53.9399L42.1201 50.71L33.7401 45.87L64.5001 28.1L33.7301 10.33L47.7201 2.26001L53.3101 5.48999L86.8701 24.86L92.4701 28.09Z" fill="#94C468" stroke="#2E222F" stroke-width="4" stroke-miterlimit="10" stroke-linejoin="round"/>
<path d="M33.7401 18.33V10.33L64.5001 28.1L57.5801 32.1L33.7401 18.33Z" fill="#3BAF71" stroke="#2E222F" stroke-width="4" stroke-miterlimit="10" stroke-linejoin="round"/>
<path d="M16.9501 36.17L16.9601 44.17L30.9401 36.1V28.1L16.9501 36.17Z" fill="#219063" stroke="#2E222F" stroke-width="4" stroke-miterlimit="10" stroke-linejoin="round"/>
<path d="M33.7501 53.87V45.87L40.6701 49.87L33.7501 53.87Z" fill="#219063" stroke="#2E222F" stroke-width="4" stroke-miterlimit="10" stroke-linejoin="round"/>
<path d="M92.4701 48.09V68.09L47.7201 93.9399V73.9399L92.4701 48.09Z" fill="#9F463A" stroke="#2E222F" stroke-width="4" stroke-miterlimit="10" stroke-linejoin="round"/>
<path d="M2.97009 48.09V68.09L47.7201 93.9399V73.9399L2.97009 48.09Z" fill="#CD693D" stroke="#2E222F" stroke-width="4" stroke-miterlimit="10" stroke-linejoin="round"/>
<path d="M92.4701 28.09V48.09L47.7201 73.9399V53.9399L92.4701 28.09Z" fill="#219063" stroke="#2E222F" stroke-width="4" stroke-miterlimit="10" stroke-linejoin="round"/>
<path d="M33.7401 45.86V53.87L16.9501 44.1801V36.17L2.97009 28.09V48.09L47.7201 73.9399L47.7101 53.9399L33.7401 45.86Z" fill="#3BAF71" stroke="#2E222F" stroke-width="4" stroke-miterlimit="10" stroke-linejoin="round"/>
</svg>
