<svg width="94" height="97" viewBox="0 0 94 97" fill="none" xmlns="http://www.w3.org/2000/svg">
<path d="M91.55 28.5699L85.95 31.8L52.38 51.1801L46.78 54.41L2.05005 28.5699L7.64005 25.34L41.1901 5.95996L46.78 2.72998L91.55 28.5699Z" fill="#94C468" stroke="#2E222F" stroke-width="4" stroke-miterlimit="10" stroke-linejoin="round"/>
<path d="M77.56 36.65L60.77 46.33L30.01 28.5699L46.79 18.88L77.56 36.65Z" fill="#E58F4D" stroke="#2E222F" stroke-width="4" stroke-miterlimit="10" stroke-linejoin="round"/>
<path d="M2.05005 48.5601V68.5601L46.8001 94.41V74.41L2.05005 48.5601Z" fill="#CD693D" stroke="#2E222F" stroke-width="4" stroke-miterlimit="10" stroke-linejoin="round"/>
<path d="M2.05005 28.5601V48.5601L46.8001 74.41V54.41L2.05005 28.5601Z" fill="#3BAF71" stroke="#2E222F" stroke-width="4" stroke-miterlimit="10" stroke-linejoin="round"/>
<path d="M91.55 28.5601V48.5601L46.8 74.41V54.41L91.55 28.5601Z" fill="#219063" stroke="#2E222F" stroke-width="4" stroke-miterlimit="10" stroke-linejoin="round"/>
<path d="M77.57 56.63V36.64L60.78 46.33V66.33L46.8 74.41V94.41L91.55 68.5601V48.5601L77.57 56.63Z" fill="#9F463A" stroke="#2E222F" stroke-width="4" stroke-miterlimit="10" stroke-linejoin="round"/>
</svg>
