<svg width="95" height="97" viewBox="0 0 95 97" fill="none" xmlns="http://www.w3.org/2000/svg">
<path d="M16.67 28.49L61.4301 54.33L78.2001 44.64L33.4601 18.8L16.67 28.49Z" fill="#96D0F3" stroke="#2E222F" stroke-width="4" stroke-miterlimit="10" stroke-linejoin="round"/>
<path d="M16.67 28.49L61.4301 54.33L78.2001 44.64L33.4601 18.8L16.67 28.49Z" fill="#96D0F3" stroke="#2E222F" stroke-width="4" stroke-miterlimit="10" stroke-linejoin="round"/>
<path d="M78.2001 44.64V36.64L33.4401 10.8101V18.8L78.2001 44.64Z" fill="#3BAF71" stroke="#2E222F" stroke-width="4" stroke-miterlimit="10" stroke-linejoin="round"/>
<path d="M61.41 46.33V54.33L54.49 50.33L61.41 46.33Z" fill="#219063" stroke="#2E222F" stroke-width="4" stroke-miterlimit="10" stroke-linejoin="round"/>
<path d="M47.4301 38.33V46.33L64.2101 36.5601V28.5601L47.4301 38.33Z" fill="#9F463A" stroke="#2E222F" stroke-width="4" stroke-miterlimit="10" stroke-linejoin="round"/>
<path d="M33.4401 10.8101L78.1901 36.64L86.5901 31.79L92.1801 28.5601L47.4301 2.72998L41.8301 5.95996L33.4401 10.8101Z" fill="#94C468" stroke="#2E222F" stroke-width="4" stroke-miterlimit="10" stroke-linejoin="round"/>
<path d="M2.68005 28.5601L47.4301 54.41L53.0201 51.1801L61.41 46.33L16.66 20.49L8.28009 25.33L2.68005 28.5601Z" fill="#94C468" stroke="#2E222F" stroke-width="4" stroke-miterlimit="10" stroke-linejoin="round"/>
<path d="M33.4501 46.33L16.67 36.63L61.42 10.8L78.2001 20.49L33.4501 46.33Z" fill="#E58F4D" stroke="#2E222F" stroke-width="4" stroke-miterlimit="10" stroke-linejoin="round"/>
<path d="M92.1801 48.5601V68.5601L47.4301 94.41V74.41L92.1801 48.5601Z" fill="#9F463A" stroke="#2E222F" stroke-width="4" stroke-miterlimit="10" stroke-linejoin="round"/>
<path d="M2.68005 28.5601V48.5601L47.4301 74.41V54.41L2.68005 28.5601Z" fill="#3BAF71" stroke="#2E222F" stroke-width="4" stroke-miterlimit="10" stroke-linejoin="round"/>
<path d="M61.41 46.33V54.33L78.2001 44.64V36.64L92.1801 28.5601V48.5601L47.4301 74.41L47.4401 54.41L61.41 46.33Z" fill="#219063" stroke="#2E222F" stroke-width="4" stroke-miterlimit="10" stroke-linejoin="round"/>
<path d="M16.66 56.63V36.64L33.4501 46.33V66.33L47.4301 74.41V94.41L2.68005 68.5601V48.5601L16.66 56.63Z" fill="#CD693D" stroke="#2E222F" stroke-width="4" stroke-miterlimit="10" stroke-linejoin="round"/>
</svg>
