<svg width="95" height="97" viewBox="0 0 95 97" fill="none" xmlns="http://www.w3.org/2000/svg">
<path d="M47.62 54.15L42.02 50.92L8.46001 31.54L2.87 28.3101L47.61 2.47998L53.21 5.70996L86.77 25.08L92.36 28.3101L47.62 54.15Z" fill="#94C468" stroke="#2E222F" stroke-width="4" stroke-miterlimit="10" stroke-linejoin="round"/>
<path d="M33.63 46.08L16.85 36.38L61.6 10.55L78.38 20.23L33.63 46.08Z" fill="#E58F4D" stroke="#2E222F" stroke-width="4" stroke-miterlimit="10" stroke-linejoin="round"/>
<path d="M92.36 48.3101V68.3101L47.62 94.15V74.15L92.36 48.3101Z" fill="#9F463A" stroke="#2E222F" stroke-width="4" stroke-miterlimit="10" stroke-linejoin="round"/>
<path d="M2.87 28.3101V48.3101L47.62 74.15V54.15L2.87 28.3101Z" fill="#3BAF71" stroke="#2E222F" stroke-width="4" stroke-miterlimit="10" stroke-linejoin="round"/>
<path d="M92.36 28.3101V48.3101L47.62 74.15V54.15L92.36 28.3101Z" fill="#219063" stroke="#2E222F" stroke-width="4" stroke-miterlimit="10" stroke-linejoin="round"/>
<path d="M16.84 56.38V36.39L33.63 46.0699V66.08L47.61 74.15V94.15L2.87 68.3101V48.3101L16.84 56.38Z" fill="#CD693D" stroke="#2E222F" stroke-width="4" stroke-miterlimit="10" stroke-linejoin="round"/>
</svg>
