<svg width="95" height="97" viewBox="0 0 95 97" fill="none" xmlns="http://www.w3.org/2000/svg">
<path d="M64.3701 36.48L78.36 44.55L61.5701 54.24L47.5901 46.17L33.61 54.24L16.8301 44.55L30.8101 36.48L16.8301 28.4L33.6 18.71L47.5901 26.79L61.5801 18.72L78.36 28.4L64.3701 36.48Z" fill="#96D0F3" stroke="#2E222F" stroke-width="4" stroke-miterlimit="10" stroke-linejoin="round"/>
<path d="M64.3701 36.48L78.36 44.55L61.5701 54.24L47.5901 46.17L33.61 54.24L16.8301 44.55L30.8101 36.48L16.8301 28.4L33.6 18.71L47.5901 26.79L61.5801 18.72L78.36 28.4L64.3701 36.48Z" fill="#96D0F3" stroke="#2E222F" stroke-width="4" stroke-miterlimit="10" stroke-linejoin="round"/>
<path d="M16.8301 20.39L30.8101 28.47L16.8301 36.54L8.44012 31.6899L2.8501 28.46L16.8301 20.39Z" fill="#94C468" stroke="#2E222F" stroke-width="4" stroke-miterlimit="10" stroke-linejoin="round"/>
<path d="M47.6001 18.78L33.6101 10.7L47.5901 2.63L53.1901 5.85999L61.5801 10.71L47.6001 18.78Z" fill="#94C468" stroke="#2E222F" stroke-width="4" stroke-miterlimit="10" stroke-linejoin="round"/>
<path d="M61.5701 46.23L47.6001 54.3101L42.0001 51.08L33.6101 46.23L47.6001 38.16L61.5701 46.23Z" fill="#94C468" stroke="#2E222F" stroke-width="4" stroke-miterlimit="10" stroke-linejoin="round"/>
<path d="M92.3401 28.46L78.3601 36.54L64.3801 28.47L78.3601 20.39L86.7501 25.23L92.3401 28.46Z" fill="#94C468" stroke="#2E222F" stroke-width="4" stroke-miterlimit="10" stroke-linejoin="round"/>
<path d="M33.6001 18.71L33.6101 10.7L47.6001 18.78L47.5901 26.79L33.6001 18.71Z" fill="#3BAF71" stroke="#2E222F" stroke-width="4" stroke-miterlimit="10" stroke-linejoin="round"/>
<path d="M61.5801 10.71V18.72L47.5901 26.79L47.6 18.78L61.5801 10.71Z" fill="#219063" stroke="#2E222F" stroke-width="4" stroke-miterlimit="10" stroke-linejoin="round"/>
<path d="M78.3601 44.55V36.54L64.3801 28.47L64.3701 36.48L78.3601 44.55Z" fill="#3BAF71" stroke="#2E222F" stroke-width="4" stroke-miterlimit="10" stroke-linejoin="round"/>
<path d="M30.8101 36.48V28.47L16.8301 36.54V44.55L30.8101 36.48Z" fill="#219063" stroke="#2E222F" stroke-width="4" stroke-miterlimit="10" stroke-linejoin="round"/>
<path d="M2.8501 48.47V68.47L47.6001 94.3101V74.3101L2.8501 48.47Z" fill="#CD693D" stroke="#2E222F" stroke-width="4" stroke-miterlimit="10" stroke-linejoin="round"/>
<path d="M92.3401 48.46V68.46L47.6001 94.3101V74.3101L92.3401 48.46Z" fill="#9F463A" stroke="#2E222F" stroke-width="4" stroke-miterlimit="10" stroke-linejoin="round"/>
<path d="M61.5701 46.23V54.24L78.3601 44.55V36.54L92.3401 28.46V48.46L47.6001 74.3101V54.3101L61.5701 46.23Z" fill="#219063" stroke="#2E222F" stroke-width="4" stroke-miterlimit="10" stroke-linejoin="round"/>
<path d="M33.6201 46.23V54.24L16.8301 44.55V36.54L2.8501 28.46V48.46L47.6001 74.3101L47.5901 54.3101L33.6201 46.23Z" fill="#3BAF71" stroke="#2E222F" stroke-width="4" stroke-miterlimit="10" stroke-linejoin="round"/>
</svg>
