<svg width="95" height="97" viewBox="0 0 95 97" fill="none" xmlns="http://www.w3.org/2000/svg">
<path d="M47.62 54.41L42.02 51.1801L8.46001 31.79L2.87 28.5601L47.61 2.72998L53.21 5.95996L86.77 25.33L92.36 28.5601L47.62 54.41Z" fill="#94C468" stroke="#2E222F" stroke-width="4" stroke-miterlimit="10" stroke-linejoin="round"/>
<path d="M33.63 46.33L16.85 36.64L47.62 18.88L64.4 28.5601L33.63 46.33Z" fill="#E58F4D" stroke="#2E222F" stroke-width="4" stroke-miterlimit="10" stroke-linejoin="round"/>
<path d="M92.36 48.5601V68.5601L47.62 94.41V74.41L92.36 48.5601Z" fill="#9F463A" stroke="#2E222F" stroke-width="4" stroke-miterlimit="10" stroke-linejoin="round"/>
<path d="M2.87 28.5601V48.5601L47.62 74.41V54.41L2.87 28.5601Z" fill="#3BAF71" stroke="#2E222F" stroke-width="4" stroke-miterlimit="10" stroke-linejoin="round"/>
<path d="M92.36 28.5601V48.5601L47.62 74.41V54.41L92.36 28.5601Z" fill="#219063" stroke="#2E222F" stroke-width="4" stroke-miterlimit="10" stroke-linejoin="round"/>
<path d="M16.84 56.63V36.64L33.63 46.33V66.33L47.61 74.41V94.41L2.87 68.5601V48.5601L16.84 56.63Z" fill="#CD693D" stroke="#2E222F" stroke-width="4" stroke-miterlimit="10" stroke-linejoin="round"/>
</svg>
