<svg width="95" height="96" viewBox="0 0 95 96" fill="none" xmlns="http://www.w3.org/2000/svg">
<path d="M2.87 28.1L8.46001 31.33L42.04 50.71L47.63 53.9399L92.36 28.1L86.77 24.87L53.22 5.48999L47.63 2.26001L2.87 28.1Z" fill="#94C468" stroke="#2E222F" stroke-width="4" stroke-miterlimit="10" stroke-linejoin="round"/>
<path d="M16.85 36.1801L30.84 28.1L47.62 18.41L61.61 10.34L78.38 20.03L64.4 28.1L78.39 36.1801L61.61 45.86L47.62 37.79L33.64 45.86L16.85 36.1801Z" fill="#E58F4D" stroke="#2E222F" stroke-width="4" stroke-miterlimit="10" stroke-linejoin="round"/>
<path d="M2.87 28.09V48.09L47.62 73.9399V53.9399L2.87 28.09Z" fill="#3BAF71" stroke="#2E222F" stroke-width="4" stroke-miterlimit="10" stroke-linejoin="round"/>
<path d="M92.36 28.09V48.09L47.62 73.9399V53.9399L92.36 28.09Z" fill="#219063" stroke="#2E222F" stroke-width="4" stroke-miterlimit="10" stroke-linejoin="round"/>
<path d="M78.38 56.17V36.17L61.59 45.86V65.87L47.62 73.9399V93.9399L92.36 68.09V48.09L78.38 56.17Z" fill="#9F463A" stroke="#2E222F" stroke-width="4" stroke-miterlimit="10" stroke-linejoin="round"/>
<path d="M16.85 56.17V36.17L33.64 45.86V65.87L47.62 73.9399V93.9399L2.87 68.09V48.09L16.85 56.17Z" fill="#CD693D" stroke="#2E222F" stroke-width="4" stroke-miterlimit="10" stroke-linejoin="round"/>
</svg>
