<svg width="94" height="97" viewBox="0 0 94 97" fill="none" xmlns="http://www.w3.org/2000/svg">
<path d="M2.20007 28.5699L7.79007 25.34L41.3701 5.95996L46.9601 2.72998L91.7001 28.5699L86.1001 31.8L52.55 51.1801L46.9601 54.41L2.20007 28.5699Z" fill="#94C468" stroke="#2E222F" stroke-width="4" stroke-miterlimit="10" stroke-linejoin="round"/>
<path d="M16.1801 20.49L32.9701 10.8101L63.7301 28.5699L46.9601 38.26L16.1801 20.49Z" fill="#E58F4D" stroke="#2E222F" stroke-width="4" stroke-miterlimit="10" stroke-linejoin="round"/>
<path d="M2.20007 48.5601V68.5601L46.9501 94.41V74.41L2.20007 48.5601Z" fill="#CD693D" stroke="#2E222F" stroke-width="4" stroke-miterlimit="10" stroke-linejoin="round"/>
<path d="M91.7001 48.5601V68.5601L46.9501 94.41V74.41L91.7001 48.5601Z" fill="#9F463A" stroke="#2E222F" stroke-width="4" stroke-miterlimit="10" stroke-linejoin="round"/>
<path d="M2.20007 28.5601V48.5601L46.9501 74.41V54.41L2.20007 28.5601Z" fill="#3BAF71" stroke="#2E222F" stroke-width="4" stroke-miterlimit="10" stroke-linejoin="round"/>
<path d="M91.7001 28.5601V48.5601L46.9501 74.41V54.41L91.7001 28.5601Z" fill="#219063" stroke="#2E222F" stroke-width="4" stroke-miterlimit="10" stroke-linejoin="round"/>
</svg>
