<svg width="95" height="96" viewBox="0 0 95 96" fill="none" xmlns="http://www.w3.org/2000/svg">
<path d="M78.4601 28.03L47.7001 45.8L16.9401 28.03L33.72 18.34H33.73L47.7001 26.42L61.6901 18.35L78.4601 28.03Z" fill="#96D0F3" stroke="#2E222F" stroke-width="4" stroke-miterlimit="10" stroke-linejoin="round"/>
<path d="M78.4601 28.03L47.7001 45.8L16.9401 28.03L33.72 18.34H33.73L47.7001 26.42L61.6901 18.35L78.4601 28.03Z" fill="#96D0F3" stroke="#2E222F" stroke-width="4" stroke-miterlimit="10" stroke-linejoin="round"/>
<path d="M47.7 18.41L33.72 10.33L42.11 5.48999L47.7 2.26001L61.68 10.34L47.7 18.41Z" fill="#94C468" stroke="#2E222F" stroke-width="4" stroke-miterlimit="10" stroke-linejoin="round"/>
<path d="M92.4401 28.1L86.85 31.33L53.29 50.7L47.7001 53.9399L2.94006 28.1L8.53009 24.87L16.9301 20.02L47.7001 37.79L78.4601 20.02L92.4401 28.1Z" fill="#94C468" stroke="#2E222F" stroke-width="4" stroke-miterlimit="10" stroke-linejoin="round"/>
<path d="M33.72 10.33V18.34L47.7 26.42V18.41L33.72 10.33Z" fill="#3BAF71" stroke="#2E222F" stroke-width="4" stroke-miterlimit="10" stroke-linejoin="round"/>
<path d="M61.6801 10.34L61.6901 18.35L47.7001 26.42V18.41L61.6801 10.34Z" fill="#219063" stroke="#2E222F" stroke-width="4" stroke-miterlimit="10" stroke-linejoin="round"/>
<path d="M2.94006 48.09V68.09L47.6901 93.9399V73.9399L2.94006 48.09Z" fill="#CD693D" stroke="#2E222F" stroke-width="4" stroke-miterlimit="10" stroke-linejoin="round"/>
<path d="M92.4401 48.09V68.09L47.6901 93.9399V73.9399L92.4401 48.09Z" fill="#9F463A" stroke="#2E222F" stroke-width="4" stroke-miterlimit="10" stroke-linejoin="round"/>
<path d="M2.94006 28.09V48.09L47.6901 73.9399V53.9399L2.94006 28.09Z" fill="#3BAF71" stroke="#2E222F" stroke-width="4" stroke-miterlimit="10" stroke-linejoin="round"/>
<path d="M92.4401 28.09V48.09L47.6901 73.9399V53.9399L92.4401 28.09Z" fill="#219063" stroke="#2E222F" stroke-width="4" stroke-miterlimit="10" stroke-linejoin="round"/>
</svg>
