<svg width="94" height="97" viewBox="0 0 94 97" fill="none" xmlns="http://www.w3.org/2000/svg">
<path d="M47.1901 2.72998L52.7901 5.95996L86.3501 25.35L91.9401 28.58L47.2001 54.41L41.6001 51.1801L8.04007 31.8101L2.45007 28.58L47.1901 2.72998Z" fill="#94C468" stroke="#2E222F" stroke-width="4" stroke-miterlimit="10" stroke-linejoin="round"/>
<path d="M61.18 10.8101L77.96 20.5L47.19 38.26L30.41 28.58L61.18 10.8101Z" fill="#E58F4D" stroke="#2E222F" stroke-width="4" stroke-miterlimit="10" stroke-linejoin="round"/>
<path d="M2.45007 48.5601V68.5601L47.2001 94.41V74.41L2.45007 48.5601Z" fill="#CD693D" stroke="#2E222F" stroke-width="4" stroke-miterlimit="10" stroke-linejoin="round"/>
<path d="M91.9401 48.5601V68.5601L47.2001 94.41V74.41L91.9401 48.5601Z" fill="#9F463A" stroke="#2E222F" stroke-width="4" stroke-miterlimit="10" stroke-linejoin="round"/>
<path d="M2.45007 28.5601V48.5601L47.2001 74.41V54.41L2.45007 28.5601Z" fill="#3BAF71" stroke="#2E222F" stroke-width="4" stroke-miterlimit="10" stroke-linejoin="round"/>
<path d="M91.9401 28.5601V48.5601L47.2001 74.41V54.41L91.9401 28.5601Z" fill="#219063" stroke="#2E222F" stroke-width="4" stroke-miterlimit="10" stroke-linejoin="round"/>
</svg>
