<svg width="95" height="96" viewBox="0 0 95 96" fill="none" xmlns="http://www.w3.org/2000/svg">
<path d="M78.3401 44.1899L61.55 53.88L30.79 36.12L47.56 26.4301L78.3401 44.1899Z" fill="#96D0F3" stroke="#2E222F" stroke-width="4" stroke-miterlimit="10" stroke-linejoin="round"/>
<path d="M92.3201 28.12L86.73 31.35L78.3401 36.1899L47.5601 18.4301L30.7901 28.12L61.55 45.88L53.1501 50.73L47.5601 53.96L2.82007 28.12L8.41006 24.89L41.9701 5.51001L47.5601 2.28003L92.3201 28.12Z" fill="#94C468" stroke="#2E222F" stroke-width="4" stroke-miterlimit="10" stroke-linejoin="round"/>
<path d="M47.56 26.4301V18.4301L30.79 28.12L37.72 32.12L47.56 26.4301Z" fill="#219063" stroke="#2E222F" stroke-width="4" stroke-miterlimit="10" stroke-linejoin="round"/>
<path d="M78.3401 44.1899V36.1899L47.5601 18.4301V26.4301L78.3401 44.1899Z" fill="#3BAF71" stroke="#2E222F" stroke-width="4" stroke-miterlimit="10" stroke-linejoin="round"/>
<path d="M61.5501 53.88V45.88L54.6201 49.88L61.5501 53.88Z" fill="#3BAF71" stroke="#2E222F" stroke-width="4" stroke-miterlimit="10" stroke-linejoin="round"/>
<path d="M2.82007 48.11V68.11L47.5701 93.96V73.96L2.82007 48.11Z" fill="#CD693D" stroke="#2E222F" stroke-width="4" stroke-miterlimit="10" stroke-linejoin="round"/>
<path d="M92.3201 48.11V68.11L47.5701 93.96V73.96L92.3201 48.11Z" fill="#9F463A" stroke="#2E222F" stroke-width="4" stroke-miterlimit="10" stroke-linejoin="round"/>
<path d="M2.82007 28.11V48.11L47.5701 73.96V53.96L2.82007 28.11Z" fill="#3BAF71" stroke="#2E222F" stroke-width="4" stroke-miterlimit="10" stroke-linejoin="round"/>
<path d="M61.55 45.88V53.88L78.3401 44.1899V36.1899L92.3201 28.11V48.11L47.5701 73.96L47.58 53.96L61.55 45.88Z" fill="#219063" stroke="#2E222F" stroke-width="4" stroke-miterlimit="10" stroke-linejoin="round"/>
</svg>
