<svg width="95" height="96" viewBox="0 0 95 96" fill="none" xmlns="http://www.w3.org/2000/svg">
<path d="M33.61 18.36L16.8301 28.05L47.6 45.8101L64.3801 36.13L33.61 18.36Z" fill="#96D0F3" stroke="#2E222F" stroke-width="4" stroke-miterlimit="10" stroke-linejoin="round"/>
<path d="M2.8501 28.13L47.6001 53.96L53.2001 50.73L86.7601 31.36L92.3501 28.13L47.6001 2.28003L42.0101 5.51001L33.6201 10.36L64.3801 28.13L47.6001 37.8101L16.8401 20.05L8.45013 24.9L2.8501 28.13Z" fill="#94C468" stroke="#2E222F" stroke-width="4" stroke-miterlimit="10" stroke-linejoin="round"/>
<path d="M33.6101 18.36V10.36L64.3801 28.13L57.4501 32.12L33.6101 18.36Z" fill="#3BAF71" stroke="#2E222F" stroke-width="4" stroke-miterlimit="10" stroke-linejoin="round"/>
<path d="M2.8501 48.11V68.11L47.6001 93.96V73.96L2.8501 48.11Z" fill="#CD693D" stroke="#2E222F" stroke-width="4" stroke-miterlimit="10" stroke-linejoin="round"/>
<path d="M92.3501 48.11V68.11L47.6001 93.96V73.96L92.3501 48.11Z" fill="#9F463A" stroke="#2E222F" stroke-width="4" stroke-miterlimit="10" stroke-linejoin="round"/>
<path d="M2.8501 28.11V48.11L47.6001 73.96V53.96L2.8501 28.11Z" fill="#3BAF71" stroke="#2E222F" stroke-width="4" stroke-miterlimit="10" stroke-linejoin="round"/>
<path d="M92.3501 28.11V48.11L47.6001 73.96V53.96L92.3501 28.11Z" fill="#219063" stroke="#2E222F" stroke-width="4" stroke-miterlimit="10" stroke-linejoin="round"/>
</svg>
