<svg width="94" height="97" viewBox="0 0 94 97" fill="none" xmlns="http://www.w3.org/2000/svg">
<path d="M47.1901 54.15L52.7901 50.92L86.3501 31.54L91.9401 28.3101L47.2001 2.47998L41.6001 5.70996L8.04007 25.08L2.45007 28.3101L47.1901 54.15Z" fill="#94C468" stroke="#2E222F" stroke-width="4" stroke-miterlimit="10" stroke-linejoin="round"/>
<path d="M61.1801 46.08L77.9601 36.38L33.2101 10.55L16.4301 20.23L61.1801 46.08Z" fill="#E58F4D" stroke="#2E222F" stroke-width="4" stroke-miterlimit="10" stroke-linejoin="round"/>
<path d="M2.45007 48.3101V68.3101L47.2001 94.15V74.15L2.45007 48.3101Z" fill="#CD693D" stroke="#2E222F" stroke-width="4" stroke-miterlimit="10" stroke-linejoin="round"/>
<path d="M2.45007 28.3101V48.3101L47.2001 74.15V54.15L2.45007 28.3101Z" fill="#3BAF71" stroke="#2E222F" stroke-width="4" stroke-miterlimit="10" stroke-linejoin="round"/>
<path d="M91.9401 28.3101V48.3101L47.2001 74.15V54.15L91.9401 28.3101Z" fill="#219063" stroke="#2E222F" stroke-width="4" stroke-miterlimit="10" stroke-linejoin="round"/>
<path d="M77.9701 56.38V36.39L61.1701 46.0699V66.08L47.2001 74.15V94.15L91.9401 68.3101V48.3101L77.9701 56.38Z" fill="#9F463A" stroke="#2E222F" stroke-width="4" stroke-miterlimit="10" stroke-linejoin="round"/>
</svg>
