<svg width="95" height="97" viewBox="0 0 95 97" fill="none" xmlns="http://www.w3.org/2000/svg">
<path d="M64.22 36.3101L78.2001 44.39L69.8201 49.23L61.42 54.0699L47.4401 46L33.4601 54.0699L16.6801 44.39L30.66 36.3101L47.4401 26.62L61.4301 18.55L78.2001 28.24L64.22 36.3101Z" fill="#96D0F3" stroke="#2E222F" stroke-width="4" stroke-miterlimit="10" stroke-linejoin="round"/>
<path d="M64.22 36.3101L78.2001 44.39L69.8201 49.23L61.42 54.0699L47.4401 46L33.4601 54.0699L16.6801 44.39L30.66 36.3101L47.4401 26.62L61.4301 18.55L78.2001 28.24L64.22 36.3101Z" fill="#96D0F3" stroke="#2E222F" stroke-width="4" stroke-miterlimit="10" stroke-linejoin="round"/>
<path d="M47.4401 38L61.4301 46.0699L47.4501 54.15L41.86 50.92L33.4601 46.0699L47.4401 38Z" fill="#94C468" stroke="#2E222F" stroke-width="4" stroke-miterlimit="10" stroke-linejoin="round"/>
<path d="M53.04 5.69995L61.4301 10.55L47.4401 18.62L30.66 28.3101L16.6801 36.39H16.67L8.28009 31.54L2.69006 28.3101L47.4501 2.46997L53.04 5.69995Z" fill="#94C468" stroke="#2E222F" stroke-width="4" stroke-miterlimit="10" stroke-linejoin="round"/>
<path d="M92.18 28.3101L78.2 36.39L64.22 28.3101L78.2 20.24L86.59 25.08L92.18 28.3101Z" fill="#94C468" stroke="#2E222F" stroke-width="4" stroke-miterlimit="10" stroke-linejoin="round"/>
<path d="M61.4301 18.55V10.55L16.6801 36.39V44.39L61.4301 18.55Z" fill="#219063" stroke="#2E222F" stroke-width="4" stroke-miterlimit="10" stroke-linejoin="round"/>
<path d="M64.22 36.3101V28.3101L78.2 36.39V44.39L64.22 36.3101Z" fill="#3BAF71" stroke="#2E222F" stroke-width="4" stroke-miterlimit="10" stroke-linejoin="round"/>
<path d="M61.42 54.08V46.08L54.49 50.08L61.42 54.08Z" fill="#3BAF71" stroke="#2E222F" stroke-width="4" stroke-miterlimit="10" stroke-linejoin="round"/>
<path d="M33.4501 54.08V46.08L40.3701 50.08L33.4501 54.08Z" fill="#219063" stroke="#2E222F" stroke-width="4" stroke-miterlimit="10" stroke-linejoin="round"/>
<path d="M2.68005 48.3101V68.3101L47.4301 94.15V74.15L2.68005 48.3101Z" fill="#CD693D" stroke="#2E222F" stroke-width="4" stroke-miterlimit="10" stroke-linejoin="round"/>
<path d="M92.1801 48.3101V68.3101L47.4301 94.15V74.15L92.1801 48.3101Z" fill="#9F463A" stroke="#2E222F" stroke-width="4" stroke-miterlimit="10" stroke-linejoin="round"/>
<path d="M61.41 46.0699V54.08L78.2001 44.39V36.38L92.1801 28.3V48.3101L47.4301 74.15L47.4401 54.15L61.41 46.0699Z" fill="#219063" stroke="#2E222F" stroke-width="4" stroke-miterlimit="10" stroke-linejoin="round"/>
<path d="M33.4501 46.0699V54.08L16.66 44.39V36.38L2.68005 28.3V48.3101L47.4301 74.15L47.42 54.15L33.4501 46.0699Z" fill="#3BAF71" stroke="#2E222F" stroke-width="4" stroke-miterlimit="10" stroke-linejoin="round"/>
</svg>
