<svg width="95" height="96" viewBox="0 0 95 96" fill="none" xmlns="http://www.w3.org/2000/svg">
<path d="M30.6501 36.1L61.4101 53.87H61.4201L78.2001 44.17L64.2201 36.1L78.1901 28.02L61.4201 18.33L30.6501 36.1Z" fill="#96D0F3" stroke="#2E222F" stroke-width="4" stroke-miterlimit="10" stroke-linejoin="round"/>
<path d="M30.6501 36.1L61.4101 53.87H61.4201L78.2001 44.17L64.2201 36.1L78.1901 28.02L61.4201 18.33L30.6501 36.1Z" fill="#96D0F3" stroke="#2E222F" stroke-width="4" stroke-miterlimit="10" stroke-linejoin="round"/>
<path d="M78.1901 20.02L64.2101 28.1L78.2001 36.17L86.5901 31.3199L92.1801 28.09L78.1901 20.02Z" fill="#94C468" stroke="#2E222F" stroke-width="4" stroke-miterlimit="10" stroke-linejoin="round"/>
<path d="M2.68005 28.09L47.4301 53.9399L53.0301 50.71L61.41 45.87L30.6501 28.1L61.42 10.33L47.4301 2.26001L41.8401 5.48999L8.28009 24.86L2.68005 28.09Z" fill="#94C468" stroke="#2E222F" stroke-width="4" stroke-miterlimit="10" stroke-linejoin="round"/>
<path d="M61.4201 18.33V10.33L30.6501 28.1L37.5701 32.1L61.4201 18.33Z" fill="#219063" stroke="#2E222F" stroke-width="4" stroke-miterlimit="10" stroke-linejoin="round"/>
<path d="M78.2 36.17V44.17L64.22 36.1V28.1L78.2 36.17Z" fill="#3BAF71" stroke="#2E222F" stroke-width="4" stroke-miterlimit="10" stroke-linejoin="round"/>
<path d="M61.41 53.87V45.87L54.48 49.87L61.41 53.87Z" fill="#3BAF71" stroke="#2E222F" stroke-width="4" stroke-miterlimit="10" stroke-linejoin="round"/>
<path d="M2.68005 48.09V68.09L47.4301 93.9399V73.9399L2.68005 48.09Z" fill="#CD693D" stroke="#2E222F" stroke-width="4" stroke-miterlimit="10" stroke-linejoin="round"/>
<path d="M92.1801 48.09V68.09L47.4301 93.9399V73.9399L92.1801 48.09Z" fill="#9F463A" stroke="#2E222F" stroke-width="4" stroke-miterlimit="10" stroke-linejoin="round"/>
<path d="M2.68005 28.09V48.09L47.4301 73.9399V53.9399L2.68005 28.09Z" fill="#3BAF71" stroke="#2E222F" stroke-width="4" stroke-miterlimit="10" stroke-linejoin="round"/>
<path d="M61.41 45.86V53.87L78.2001 44.1801V36.17L92.1801 28.09V48.09L47.4301 73.9399L47.4401 53.9399L61.41 45.86Z" fill="#219063" stroke="#2E222F" stroke-width="4" stroke-miterlimit="10" stroke-linejoin="round"/>
</svg>
