<svg width="94" height="96" viewBox="0 0 94 96" fill="none" xmlns="http://www.w3.org/2000/svg">
<path d="M2.45007 28.1L8.04007 24.87L41.6201 5.48999L47.2101 2.26001L91.9401 28.1L86.3501 31.33L52.8 50.71L47.2101 53.9399L2.45007 28.1Z" fill="#94C468" stroke="#2E222F" stroke-width="4" stroke-miterlimit="10" stroke-linejoin="round"/>
<path d="M16.4301 20.03L30.4201 28.1L47.2001 37.79L61.1901 45.87L77.9601 36.1801L63.9801 28.1L77.9701 20.03L61.1901 10.34L47.2001 18.41L33.2201 10.34L16.4301 20.03Z" fill="#E58F4D" stroke="#2E222F" stroke-width="4" stroke-miterlimit="10" stroke-linejoin="round"/>
<path d="M2.45007 48.09V68.09L47.2001 93.9399V73.9399L2.45007 48.09Z" fill="#CD693D" stroke="#2E222F" stroke-width="4" stroke-miterlimit="10" stroke-linejoin="round"/>
<path d="M2.45007 28.09V48.09L47.2001 73.9399V53.9399L2.45007 28.09Z" fill="#3BAF71" stroke="#2E222F" stroke-width="4" stroke-miterlimit="10" stroke-linejoin="round"/>
<path d="M91.9401 28.09V48.09L47.2001 73.9399V53.9399L91.9401 28.09Z" fill="#219063" stroke="#2E222F" stroke-width="4" stroke-miterlimit="10" stroke-linejoin="round"/>
<path d="M77.9701 56.17V36.17L61.1701 45.86V65.87L47.2001 73.9399V93.9399L91.9401 68.09V48.09L77.9701 56.17Z" fill="#9F463A" stroke="#2E222F" stroke-width="4" stroke-miterlimit="10" stroke-linejoin="round"/>
</svg>
