<svg width="95" height="97" viewBox="0 0 95 97" fill="none" xmlns="http://www.w3.org/2000/svg">
<path d="M30.8201 36.3199L16.8401 44.39L33.61 54.08L47.6 46.01L64.3801 36.3199L78.36 28.24L61.5801 18.55L47.6 26.63L33.6201 18.5601L16.8401 28.24L30.8201 36.3199Z" fill="#96D0F3" stroke="#2E222F" stroke-width="4" stroke-miterlimit="10" stroke-linejoin="round"/>
<path d="M30.8201 36.3199L16.8401 44.39L33.61 54.08L47.6 46.01L64.3801 36.3199L78.36 28.24L61.5801 18.55L47.6 26.63L33.6201 18.5601L16.8401 28.24L30.8201 36.3199Z" fill="#96D0F3" stroke="#2E222F" stroke-width="4" stroke-miterlimit="10" stroke-linejoin="round"/>
<path d="M47.5901 38L33.6001 46.0699L41.9901 50.92L47.5801 54.15L92.3501 28.3101L86.7501 25.08L78.3601 20.23H78.3501L64.3701 28.3101L47.5901 38Z" fill="#94C468" stroke="#2E222F" stroke-width="4" stroke-miterlimit="10" stroke-linejoin="round"/>
<path d="M47.5901 18.62L61.5701 10.55L53.1801 5.69995L47.5801 2.46997L33.6101 10.55L47.5901 18.62Z" fill="#94C468" stroke="#2E222F" stroke-width="4" stroke-miterlimit="10" stroke-linejoin="round"/>
<path d="M2.8501 28.3101L8.44012 31.54L16.8301 36.38L30.8101 28.3101L16.8301 20.23L2.8501 28.3101Z" fill="#94C468" stroke="#2E222F" stroke-width="4" stroke-miterlimit="10" stroke-linejoin="round"/>
<path d="M61.5701 10.55L47.5901 18.62L47.6 26.63L61.5801 18.55L61.5701 10.55Z" fill="#219063" stroke="#2E222F" stroke-width="4" stroke-miterlimit="10" stroke-linejoin="round"/>
<path d="M33.6101 10.55L33.6201 18.5601L47.6001 26.63L47.5901 18.62L33.6101 10.55Z" fill="#3BAF71" stroke="#2E222F" stroke-width="4" stroke-miterlimit="10" stroke-linejoin="round"/>
<path d="M16.8301 36.38L16.8401 44.39L30.8201 36.3199L30.8101 28.3101L16.8301 36.38Z" fill="#219063" stroke="#2E222F" stroke-width="4" stroke-miterlimit="10" stroke-linejoin="round"/>
<path d="M33.6001 46.0699V54.08L40.5201 50.08L33.6001 46.0699Z" fill="#219063" stroke="#2E222F" stroke-width="4" stroke-miterlimit="10" stroke-linejoin="round"/>
<path d="M92.3401 48.3101V68.3101L47.5901 94.15V74.15L92.3401 48.3101Z" fill="#9F463A" stroke="#2E222F" stroke-width="4" stroke-miterlimit="10" stroke-linejoin="round"/>
<path d="M2.8501 48.3101V68.3101L47.5901 94.15V74.15L2.8501 48.3101Z" fill="#CD693D" stroke="#2E222F" stroke-width="4" stroke-miterlimit="10" stroke-linejoin="round"/>
<path d="M92.3401 28.3101V48.3101L47.5901 74.15V54.15L92.3401 28.3101Z" fill="#219063" stroke="#2E222F" stroke-width="4" stroke-miterlimit="10" stroke-linejoin="round"/>
<path d="M33.6201 46.0699V54.08L16.8301 44.39V36.38L2.8501 28.3V48.3101L47.5901 74.15V54.15L33.6201 46.0699Z" fill="#3BAF71" stroke="#2E222F" stroke-width="4" stroke-miterlimit="10" stroke-linejoin="round"/>
</svg>
