<svg width="40" height="74" viewBox="0 0 40 74" fill="none" xmlns="http://www.w3.org/2000/svg">
<path d="M19.8601 71.47C28.6636 71.47 35.8001 67.6196 35.8001 62.87C35.8001 58.1203 28.6636 54.27 19.8601 54.27C11.0567 54.27 3.92017 58.1203 3.92017 62.87C3.92017 67.6196 11.0567 71.47 19.8601 71.47Z" fill="#3CAD71" stroke="#2E222F" stroke-width="4" stroke-miterlimit="10" stroke-linecap="round" stroke-linejoin="round"/>
<path d="M19.8601 62.87C17.5401 62.87 15.6602 60.99 15.6602 58.67V29.5601C15.6602 27.2401 17.5401 25.36 19.8601 25.36C22.1801 25.36 24.0602 27.2401 24.0602 29.5601V58.67C24.0602 60.99 22.1801 62.87 19.8601 62.87Z" fill="#CD683A" stroke="#2E222F" stroke-width="4" stroke-miterlimit="10" stroke-linecap="round" stroke-linejoin="round"/>
<path d="M36.8801 44.0601L36.8701 44.03C36.7601 43.82 36.6401 43.62 36.5001 43.41L22.6601 20.09C22.6001 19.98 22.5401 19.88 22.4701 19.77V19.76C21.9001 18.93 20.9401 18.38 19.8601 18.38C18.6401 18.38 17.5801 19.08 17.0501 20.09L3.2301 43.38C3.0901 43.59 2.9601 43.81 2.8501 44.03L2.84009 44.04C2.35009 44.98 2.08008 45.98 2.08008 47.02C2.08008 52.69 10.0401 57.29 19.8701 57.29C29.7001 57.29 37.6601 52.69 37.6601 47.02C37.6401 46.01 37.3801 45.0101 36.8801 44.0601Z" fill="#3CAD71" stroke="#2E222F" stroke-width="4" stroke-miterlimit="10" stroke-linecap="round" stroke-linejoin="round"/>
<path d="M34.6602 31.24L34.6501 31.22C34.5501 31.04 34.4501 30.8601 34.3301 30.6801L22.3001 10.41C22.2501 10.32 22.2002 10.22 22.1402 10.14V10.13C21.6402 9.41 20.8101 8.93005 19.8701 8.93005C18.8101 8.93005 17.8901 9.53004 17.4301 10.42L5.41016 30.67C5.29016 30.85 5.18014 31.04 5.08014 31.23L5.07016 31.24C4.64016 32.06 4.41016 32.93 4.41016 33.83C4.41016 38.76 11.3301 42.76 19.8701 42.76C28.4101 42.76 35.3301 38.76 35.3301 33.83C35.3201 32.93 35.0902 32.06 34.6602 31.24Z" fill="#3CAD71" stroke="#2E222F" stroke-width="4" stroke-miterlimit="10" stroke-linecap="round" stroke-linejoin="round"/>
<path d="M31.0201 18.97L31.0101 18.95C30.9401 18.81 30.8601 18.68 30.7701 18.55L21.6901 3.26001C21.6501 3.19001 21.6101 3.12005 21.5701 3.05005C21.2001 2.50005 20.57 2.15002 19.86 2.15002C19.06 2.15002 18.3601 2.61002 18.0201 3.27002L8.95007 18.54C8.86007 18.68 8.77007 18.82 8.70007 18.96L8.69006 18.97C8.37006 19.59 8.19006 20.24 8.19006 20.92C8.19006 24.64 13.4101 27.66 19.8501 27.66C26.2901 27.66 31.5101 24.64 31.5101 20.92C31.5201 20.24 31.35 19.58 31.0201 18.97Z" fill="#3CAD71" stroke="#2E222F" stroke-width="4" stroke-miterlimit="10" stroke-linecap="round" stroke-linejoin="round"/>
</svg>
