<svg width="35" height="48" viewBox="0 0 35 48" fill="none" xmlns="http://www.w3.org/2000/svg">
<path d="M17.74 45.47C23.1248 45.47 27.49 43.115 27.49 40.21C27.49 37.3049 23.1248 34.95 17.74 34.95C12.3552 34.95 7.98999 37.3049 7.98999 40.21C7.98999 43.115 12.3552 45.47 17.74 45.47Z" fill="#3CAD71" stroke="#2E222F" stroke-width="4" stroke-miterlimit="10" stroke-linecap="round" stroke-linejoin="round"/>
<path d="M17.74 40.21C16.32 40.21 15.17 39.06 15.17 37.64V19.84C15.17 18.42 16.32 17.27 17.74 17.27C19.16 17.27 20.31 18.42 20.31 19.84V37.64C20.31 39.06 19.16 40.21 17.74 40.21Z" fill="#CD683A" stroke="#2E222F" stroke-width="4" stroke-miterlimit="10" stroke-linecap="round" stroke-linejoin="round"/>
<path d="M32.72 17.39C32.72 24.78 27.36 30.92 20.32 32.14C19.48 32.29 18.63 32.36 17.75 32.36C16.87 32.36 16.01 32.29 15.18 32.14C11.24 31.46 7.83003 29.24 5.59003 26.12C4.93003 25.2 4.37002 24.2 3.93002 23.14C3.19002 21.37 2.79004 19.43 2.79004 17.39C2.79004 9.12001 9.49004 2.42004 17.76 2.42004C19.58 2.42004 21.32 2.73997 22.93 3.33997C23.12 3.40997 23.3 3.48006 23.49 3.56006C24.38 3.93006 25.22 4.38002 26.01 4.90002C30.05 7.58002 32.72 12.18 32.72 17.39Z" fill="#3CAD71" stroke="#2E222F" stroke-width="4" stroke-miterlimit="10" stroke-linecap="round" stroke-linejoin="round"/>
</svg>
