<svg width="54" height="75" viewBox="0 0 54 75" fill="none" xmlns="http://www.w3.org/2000/svg">
<path d="M26.9301 72.47C35.7335 72.47 42.8701 68.6196 42.8701 63.87C42.8701 59.1203 35.7335 55.27 26.9301 55.27C18.1267 55.27 10.9901 59.1203 10.9901 63.87C10.9901 68.6196 18.1267 72.47 26.9301 72.47Z" fill="#3CAD71" stroke="#2E222F" stroke-width="4" stroke-miterlimit="10" stroke-linecap="round" stroke-linejoin="round"/>
<path d="M26.9301 63.87C24.6101 63.87 22.7301 61.99 22.7301 59.67V30.5601C22.7301 28.2401 24.6101 26.36 26.9301 26.36C29.2501 26.36 31.1301 28.2401 31.1301 30.5601V59.67C31.1401 61.99 29.2501 63.87 26.9301 63.87Z" fill="#CD683A" stroke="#2E222F" stroke-width="4" stroke-miterlimit="10" stroke-linecap="round" stroke-linejoin="round"/>
<path d="M51.4201 26.55C51.4201 38.64 42.6601 48.6901 31.1301 50.6801C29.7601 50.9201 28.3601 51.04 26.9301 51.04C25.5001 51.04 24.0901 50.9201 22.7301 50.6801C16.2901 49.5701 10.7101 45.93 7.04007 40.83C5.96007 39.32 5.04008 37.69 4.32008 35.96C3.11008 33.06 2.45007 29.8901 2.45007 26.5601C2.45007 13.0301 13.4101 2.07996 26.9301 2.07996C29.9001 2.07996 32.7501 2.60996 35.3901 3.57996C35.7001 3.69996 36.0001 3.80994 36.3001 3.93994C37.7501 4.53994 39.1301 5.28 40.4301 6.13C47.0501 10.5 51.4201 18.02 51.4201 26.55Z" fill="#3CAD71" stroke="#2E222F" stroke-width="4" stroke-miterlimit="10" stroke-linecap="round" stroke-linejoin="round"/>
</svg>
