<svg width="28" height="47" viewBox="0 0 28 47" fill="none" xmlns="http://www.w3.org/2000/svg">
<path d="M13.83 44.47C19.6842 44.47 24.43 41.9091 24.43 38.75C24.43 35.5909 19.6842 33.03 13.83 33.03C7.97574 33.03 3.22998 35.5909 3.22998 38.75C3.22998 41.9091 7.97574 44.47 13.83 44.47Z" fill="#3CAD71" stroke="#2E222F" stroke-width="4" stroke-miterlimit="10" stroke-linecap="round" stroke-linejoin="round"/>
<path d="M13.83 38.75C12.29 38.75 11.03 37.5 11.03 35.95V16.59C11.03 15.05 12.28 13.79 13.83 13.79C15.37 13.79 16.63 15.04 16.63 16.59V35.95C16.62 37.5 15.37 38.75 13.83 38.75Z" fill="#CD683A" stroke="#2E222F" stroke-width="4" stroke-miterlimit="10" stroke-linecap="round" stroke-linejoin="round"/>
<path d="M25.15 26.24L25.14 26.22C25.07 26.08 24.98 25.9401 24.9 25.8101L15.7 10.3C15.66 10.23 15.62 10.16 15.58 10.09C15.2 9.53997 14.56 9.17004 13.84 9.17004C13.03 9.17004 12.32 9.63006 11.97 10.3101L2.78 25.8C2.69 25.94 2.59999 26.08 2.51999 26.23L2.51001 26.24C2.18001 26.87 2 27.53 2 28.22C2 31.99 7.29999 35.05 13.83 35.05C20.36 35.05 25.66 31.99 25.66 28.22C25.66 27.53 25.48 26.87 25.15 26.24Z" fill="#3CAD71" stroke="#2E222F" stroke-width="4" stroke-miterlimit="10" stroke-linecap="round" stroke-linejoin="round"/>
<path d="M23.6701 17.71L23.6601 17.6899C23.6001 17.5699 23.5201 17.45 23.4501 17.33L15.4501 3.84998C15.4201 3.78998 15.3801 3.73004 15.3401 3.67004C15.0101 3.19004 14.46 2.87 13.83 2.87C13.12 2.87 12.5101 3.26999 12.2101 3.85999L4.22006 17.33C4.14006 17.45 4.06006 17.58 4.00006 17.7L3.99005 17.71C3.70005 18.26 3.55005 18.8301 3.55005 19.4301C3.55005 22.7101 8.15005 25.37 13.83 25.37C19.51 25.37 24.11 22.7101 24.11 19.4301C24.11 18.8401 23.9601 18.26 23.6701 17.71Z" fill="#3CAD71" stroke="#2E222F" stroke-width="4" stroke-miterlimit="10" stroke-linecap="round" stroke-linejoin="round"/>
</svg>
